<?xml version="1.0" encoding="utf-8" ?>
<svg xmlns="http://www.w3.org/2000/svg" xmlns:xlink="http://www.w3.org/1999/xlink" width="512" height="512">
	<path fill="#341E62" transform="scale(0.666667 0.666667)" d="M589.737 104.159C589.655 103.731 589.429 103.409 589.219 103.031C588.321 102.646 588.214 102.377 587.623 101.627C586.71 101.624 586.179 101.096 585.486 100.529C584.28 99.5425 582.903 98.7665 581.625 97.875L580.969 97.4062C580.07 96.9489 579.947 96.7646 579.281 96.0019L578.812 96L578.156 95.2519L577.688 95.25C577.054 94.4096 576.063 94.0879 575.25 93.375L574.498 92.7188L569.625 89.625L568.5 88.875C567.922 88.4369 567.516 88.0474 566.865 87.6973L565.682 87.0059L564 85.875C563.385 85.4455 562.802 85.0884 562.125 84.75L561 84.1875C560.36 83.7759 559.988 83.3819 559.265 83.08L558.75 82.875L558.373 82.5019C557.627 82.4994 555.174 80.7505 554.432 80.2559L549 76.875L548.531 76.5019L548.059 76.3125L544.5 74.625L543.094 73.7812C542.207 73.3642 542.686 73.6898 542.055 73.2186C541.597 72.8774 541.716 72.9187 541.125 72.6581C539.621 71.9951 538.089 70.6624 536.623 70.1269C534.756 69.4444 537.149 70.6802 535.389 69.7323L532.219 68.1562L532.5 67.9669C533.651 67.6503 533.265 67.1061 534.184 66.1875L533.623 65.6269L533.062 65.4412L533.059 64.6875C532.336 64.0186 531.412 63.3291 531.093 62.3698C530.868 61.697 530.706 61.046 530.434 60.375C531.028 59.5469 531.112 59.129 532.123 58.8731L532.125 58.3125L532.684 57.9375C532.856 57.5952 532.927 57.3077 533.25 57.0919L533.809 56.8125L533.625 55.6875L534.184 55.3125C534.184 54.4373 534.221 54.7438 534.092 53.9531L534 53.4375L534.559 53.0625C534.04 52.4901 533.735 52.0413 533.482 51.3173L533.248 50.6269L532.592 50.625L532.498 49.8769C530.979 49.3738 530.373 48.7825 529.125 47.8162C528.617 47.4229 528.393 47.2966 527.998 46.7527C527.638 46.2563 527.288 45.8276 526.873 45.3769C526.108 45.1234 525.71 45.2899 524.942 45.4832L524.625 45.5662C524.378 45.0765 524.231 44.587 524.062 44.0663L524.438 43.875C524.865 44.2363 525.079 44.4243 525.641 44.5371C526.308 44.671 525.983 44.5468 526.658 44.8535L527.812 45.375L529.689 46.2188L530.625 46.6875L532.5 47.4375C533.322 47.7557 533.971 47.8603 534.75 48.375C535.234 48.6948 535.379 48.9107 535.958 49.084C536.49 49.2433 536.871 49.4984 537.375 49.6875L538.125 49.875L540.516 51.0352C542.725 52.225 545.874 54.332 548.327 54.2037C552.47 55.9609 556.483 58.2527 560.438 60.3972C569.247 65.1747 577.826 70.5181 586.125 76.1271C602.953 87.5012 619.157 99.9202 633.965 113.849C646.63 125.762 657.967 138.855 668.669 152.531C687.278 176.31 703.754 202.524 715.095 230.587C753.15 324.744 755.611 434.411 715.611 528.426C703.668 556.498 688.144 584.071 669.03 607.913C653.473 627.319 634.97 644.602 615.501 660.023C586.852 682.714 555.629 701.736 521.648 715.346L517.168 717.066L517.226 716.431C515.708 716.696 514.275 717.649 512.812 718.137L512.25 718.312L511.125 718.688C510.534 718.847 510.433 718.805 509.906 719.215L509.531 719.531C508.614 719.543 506.408 720.261 505.576 720.709L505.031 721.031L504.375 720.941C503.613 721.695 502.9 721.685 501.979 722.104C501.282 722.42 500.653 722.752 499.875 722.812L499.312 722.816L499.031 723.281C497.835 723.297 497.244 723.969 496.113 724.131C495.278 724.25 495.65 724.113 494.931 724.506C494.225 724.891 493.663 724.787 492.937 725.15C492.267 725.486 492.545 725.415 491.877 725.549L491.438 725.625C490.608 725.896 490.757 725.904 489.938 725.816L489.656 726.281C488.448 726.297 487.857 726.985 486.715 727.148C485.939 727.259 485.406 727.65 484.689 727.781L483.75 727.875C482.99 728.15 482.71 728.524 481.84 728.648C481.059 728.76 480.62 729.117 479.906 729.281C479.067 729.474 478.734 729.24 477.885 729.697C477.107 730.116 477.477 730.022 476.59 730.148C475.742 730.27 475.055 730.784 474.245 730.806C473.388 730.83 473.051 730.771 472.26 731.197C471.621 731.541 471.473 731.595 470.777 731.648C469.901 731.716 469.474 732.026 468.656 732.281C468.107 732.453 467.417 732.282 466.877 732.469C466.06 732.75 465.232 732.852 464.438 733.125C463.418 733.476 463.086 733.205 462.188 733.875C460.992 733.875 460.082 734.112 459.094 733.406L459.373 733.031C459.003 732.535 459.103 732.779 458.983 732.118L458.906 731.627L458.25 731.441C458.048 730.844 457.881 730.61 457.498 730.127L456.938 729.941L456.75 729.188L457.684 728.438L457.592 727.125L458.434 725.625C459.216 724.343 458.776 721.572 458.717 720L458.998 719.531L459 719.062L459.934 718.312L459.75 717.562L460.309 717.188C460.295 716.622 460.285 716.122 460.397 715.563L460.498 715.123L460.594 714.469L461.25 714.559L461.809 714L461.438 713.441L460.875 713.625L460.312 713.066C459.618 713.086 458.878 713.179 458.22 712.93C456.723 712.365 456.963 712.925 455.816 713.438C455.544 713.559 454.479 713.44 454.125 713.441L453.75 713.062C454.55 712.796 455.412 712.767 456.188 712.5C456.929 712.245 457.362 712.307 458.062 712.125L460.031 711.656C461.083 711.356 462.147 710.924 463.23 710.707L465.656 710.156C466.85 709.714 468.118 709.527 469.312 709.125C470.814 708.619 472.389 708.34 473.906 707.906L476.051 707.262L481.031 705.656C481.761 705.39 482.444 705.255 483.176 705.012L489.373 703.031C490.503 702.636 491.578 702.141 492.75 701.812L493.5 701.625C494.546 701.146 496.384 700.267 497.49 700.166C498.185 700.103 497.87 700.205 498.557 699.861C499.131 699.574 499.627 699.355 500.25 699.188C501.306 698.903 502.191 698.348 503.25 698.062C506.413 697.211 509.561 695.508 512.625 694.312L513.375 694.125L515.76 692.971L517.5 692.062C519.097 691.47 520.816 690.1 522.387 689.707L522.75 689.625C525.012 688.508 527.776 687.233 529.875 685.875C530.333 685.579 530.46 685.349 531.006 685.213C531.48 685.094 531.283 685.199 531.674 684.92C532.354 684.434 533.081 684.07 533.842 683.725L534.281 683.531L534.614 682.587C534.615 682.58 537.471 680.923 537.817 680.734C557.629 669.924 576.293 658.19 594.451 644.767C603.535 638.052 612.856 630.912 620.869 622.934C626.495 618.232 631.472 612.282 636.48 606.918C652.328 589.942 666.181 571.486 677.274 551.045L689.213 527.062L698.608 502.875C718.875 448.195 721.817 388.045 715.934 330.501C714.315 314.66 712.421 299.229 708.767 283.688C704.111 263.886 697.55 244.536 688.998 226.076L677.232 203.531C675.296 200.061 671.481 191.985 667.599 190.565C667.113 189.794 666.911 189.869 666.097 189.54L666.171 189.37L666.672 188.812C665.315 185.542 663.631 182.56 661.684 179.609C659.417 175.567 656.287 171.802 653.509 168.088C635.615 144.165 613.365 122.394 589.737 104.159Z"/>
	<defs>
		<linearGradient id="gradient_0" gradientUnits="userSpaceOnUse" x1="498.28235" y1="391.14771" x2="24.967421" y2="339.69971">
			<stop offset="0" stop-color="#3E2472"/>
			<stop offset="1" stop-color="#6335B4"/>
		</linearGradient>
	</defs>
	<path fill="url(#gradient_0)" transform="scale(0.666667 0.666667)" d="M517.168 717.066C514.512 718.651 511.035 719.603 508.125 720.655L484.063 728.714C466.258 734.252 447.834 737.746 429.375 740.159C423.814 740.886 418.143 741.887 412.552 742.28L390.63 742.743C380.506 742.873 370.154 742.96 360.049 742.301L341.076 740.258C306.992 736.141 273.512 727.474 241.875 714.081C233.352 710.473 224.805 706.783 216.61 702.468C149.812 667.301 92.7688 613.869 58.8153 545.896C50.5428 529.335 43.6968 511.216 38.2211 493.555C35.7501 485.586 33.6258 477.448 32.0585 469.252L29.639 454.635C25.7828 433.543 22.8568 411.773 22.2176 390.328C21.39 362.561 24.1388 334.337 29.6063 307.125C35.7931 276.334 44.9403 246.688 59.6746 218.84C75.8912 188.19 94.2968 159.057 117.042 132.79C131.905 115.625 149.092 100.171 167.132 86.4166C197.99 62.8903 232.43 43.6296 269.627 32.1837C297.226 23.6913 325.991 17.62 354.826 15.4227C364.12 14.7146 373.579 14.77 382.896 14.8409L406.875 15.4107C439.494 17.6342 471.957 24.5689 502.87 35.0625C518.402 40.3346 533.815 46.5229 548.327 54.2037C545.874 54.332 542.725 52.225 540.516 51.0352L538.125 49.875L537.375 49.6875C536.871 49.4984 536.49 49.2433 535.958 49.084C535.379 48.9107 535.234 48.6948 534.75 48.375C533.971 47.8603 533.322 47.7557 532.5 47.4375L530.625 46.6875L529.689 46.2188L527.812 45.375L526.658 44.8535C525.983 44.5468 526.308 44.671 525.641 44.5371C525.079 44.4243 524.865 44.2363 524.438 43.875L524.062 44.0663C524.231 44.587 524.378 45.0765 524.625 45.5662L524.942 45.4832C525.71 45.2899 526.108 45.1234 526.873 45.3769C527.288 45.8276 527.638 46.2563 527.998 46.7527C528.393 47.2966 528.617 47.4229 529.125 47.8162C530.373 48.7825 530.979 49.3738 532.498 49.8769L532.592 50.625L533.248 50.6269L533.482 51.3173C533.735 52.0413 534.04 52.4901 534.559 53.0625L534 53.4375L534.092 53.9531C534.221 54.7438 534.184 54.4373 534.184 55.3125L533.625 55.6875L533.809 56.8125L533.25 57.0919C532.927 57.3077 532.856 57.5952 532.684 57.9375L532.125 58.3125L532.123 58.8731C531.112 59.129 531.028 59.5469 530.434 60.375C530.706 61.046 530.868 61.697 531.093 62.3698C531.412 63.3291 532.336 64.0186 533.059 64.6875L533.062 65.4412L533.623 65.6269L534.184 66.1875C533.265 67.1061 533.651 67.6503 532.5 67.9669L532.219 68.1562L535.389 69.7323C537.149 70.6802 534.756 69.4444 536.623 70.1269C538.089 70.6624 539.621 71.9951 541.125 72.6581C541.716 72.9187 541.597 72.8774 542.055 73.2186C542.686 73.6898 542.207 73.3642 543.094 73.7812L544.5 74.625L548.059 76.3125L548.531 76.5019L549 76.875L554.432 80.2559C555.174 80.7505 557.627 82.4994 558.373 82.5019L558.75 82.875L559.265 83.08C559.988 83.3819 560.36 83.7759 561 84.1875L562.125 84.75C562.802 85.0884 563.385 85.4455 564 85.875L565.682 87.0059L566.865 87.6973C567.516 88.0474 567.922 88.4369 568.5 88.875L569.625 89.625L574.498 92.7188L575.25 93.375C576.063 94.0879 577.054 94.4096 577.688 95.25L578.156 95.2519L578.812 96L579.281 96.0019C579.947 96.7646 580.07 96.9489 580.969 97.4062L581.625 97.875C582.903 98.7665 584.28 99.5425 585.486 100.529C586.179 101.096 586.71 101.624 587.623 101.627C588.214 102.377 588.321 102.646 589.219 103.031C589.429 103.409 589.655 103.731 589.737 104.159L563.581 86.3741C535.159 68.6289 504.369 55.0671 472.168 45.7858C409.621 27.7577 342.252 30.3392 280.688 50.9953C265.808 55.9878 251.33 61.6371 237.59 69.245C234.656 70.2029 232.161 71.8769 229.498 73.3967L213.306 83.3874C201.004 91.2785 187.572 98.7913 176.852 108.776L176.648 109.46L175.875 108.695C171.42 108.729 143.843 136.235 139.369 140.779C113.126 167.432 91.8141 198.507 75.9546 232.346C69.7763 245.528 64.2733 259.084 60.1232 273.056C49.3067 309.47 45.1593 347.593 45.4857 385.497C45.6525 404.859 47.8404 424.537 51.0178 443.625C53.3737 457.778 56.048 471.683 59.9779 485.491C62.0092 492.629 64.0843 499.949 67.0661 506.754L78.3737 532.44C82.0676 540.478 86.2152 547.988 90.8409 555.508C92.5968 558.363 94.4462 561.98 96.6512 564.479C108.096 581.823 122.007 597.387 135.864 612.796C139.742 617.109 143.582 622.384 147.902 626.178C158.887 638.512 171.586 648.446 184.964 658.021C192.297 663.27 199.712 668.523 207.452 673.158C219.442 680.338 232.163 686.544 244.875 692.326C256.323 697.533 267.968 702.359 279.954 706.198C292.67 710.271 305.844 713.235 318.953 715.718C331.574 718.108 344.495 720.088 357.331 720.826C397.931 723.16 438.308 717.928 477.223 706.216C489.981 702.376 502.824 698.033 515.007 692.619C521.692 689.647 528.159 686.032 534.614 682.587L534.281 683.531L533.842 683.725C533.081 684.07 532.354 684.434 531.674 684.92C531.283 685.199 531.48 685.094 531.006 685.213C530.46 685.349 530.333 685.579 529.875 685.875C527.776 687.233 525.012 688.508 522.75 689.625L522.387 689.707C520.816 690.1 519.097 691.47 517.5 692.062L515.76 692.971L513.375 694.125L512.625 694.312C509.561 695.508 506.413 697.211 503.25 698.062C502.191 698.348 501.306 698.903 500.25 699.188C499.627 699.355 499.131 699.574 498.557 699.861C497.87 700.205 498.185 700.103 497.49 700.166C496.384 700.267 494.546 701.146 493.5 701.625L492.75 701.812C491.578 702.141 490.503 702.636 489.373 703.031L483.176 705.012C482.444 705.255 481.761 705.39 481.031 705.656L476.051 707.262L473.906 707.906C472.389 708.34 470.814 708.619 469.312 709.125C468.118 709.527 466.85 709.714 465.656 710.156L463.23 710.707C462.147 710.924 461.083 711.356 460.031 711.656L458.062 712.125C457.362 712.307 456.929 712.245 456.188 712.5C455.412 712.767 454.55 712.796 453.75 713.062L454.125 713.441C454.479 713.44 455.544 713.559 455.816 713.438C456.963 712.925 456.723 712.365 458.22 712.93C458.878 713.179 459.618 713.086 460.312 713.066L460.875 713.625L461.438 713.441L461.809 714L461.25 714.559L460.594 714.469L460.498 715.123L460.397 715.563C460.285 716.122 460.295 716.622 460.309 717.188L459.75 717.562L459.934 718.312L459 719.062L458.998 719.531L458.717 720C458.776 721.572 459.216 724.343 458.434 725.625L457.592 727.125L457.684 728.438L456.75 729.188L456.938 729.941L457.498 730.127C457.881 730.61 458.048 730.844 458.25 731.441L458.906 731.627L458.983 732.118C459.103 732.779 459.003 732.535 459.373 733.031L459.094 733.406C460.082 734.112 460.992 733.875 462.188 733.875C463.086 733.205 463.418 733.476 464.438 733.125C465.232 732.852 466.06 732.75 466.877 732.469C467.417 732.282 468.107 732.453 468.656 732.281C469.474 732.026 469.901 731.716 470.777 731.648C471.473 731.595 471.621 731.541 472.26 731.197C473.051 730.771 473.388 730.83 474.245 730.806C475.055 730.784 475.742 730.27 476.59 730.148C477.477 730.022 477.107 730.116 477.885 729.697C478.734 729.24 479.067 729.474 479.906 729.281C480.62 729.117 481.059 728.76 481.84 728.648C482.71 728.524 482.99 728.15 483.75 727.875L484.689 727.781C485.406 727.65 485.939 727.259 486.715 727.148C487.857 726.985 488.448 726.297 489.656 726.281L489.938 725.816C490.757 725.904 490.608 725.896 491.438 725.625L491.877 725.549C492.545 725.415 492.267 725.486 492.937 725.15C493.663 724.787 494.225 724.891 494.931 724.506C495.65 724.113 495.278 724.25 496.113 724.131C497.244 723.969 497.835 723.297 499.031 723.281L499.312 722.816L499.875 722.812C500.653 722.752 501.282 722.42 501.979 722.104C502.9 721.685 503.613 721.695 504.375 720.941L505.031 721.031L505.576 720.709C506.408 720.261 508.614 719.543 509.531 719.531L509.906 719.215C510.433 718.805 510.534 718.847 511.125 718.688L512.25 718.312L512.812 718.137C514.275 717.649 515.708 716.696 517.226 716.431L517.168 717.066Z"/>
	<path fill="#38194F" transform="scale(0.666667 0.666667)" d="M147.902 626.178C152.902 623.34 158.673 621.236 163.947 618.923L197.282 605.162C210.919 600.132 224.814 595.524 238.875 591.822C253.708 587.917 268.878 585.139 283.987 582.541C307.054 578.575 329.982 575.719 353.397 575.043L400.075 575.841L427.669 576.106L470.044 580.373L505.572 586.361L548.951 597.503L583.81 607.597L607.125 616.448L616.97 620.812C618.336 621.475 619.676 621.958 620.869 622.934C612.856 630.912 603.535 638.052 594.451 644.767C576.293 658.19 557.629 669.924 537.817 680.734C537.471 680.923 534.615 682.58 534.614 682.587C528.159 686.032 521.692 689.647 515.007 692.619C502.824 698.033 489.981 702.376 477.223 706.216C438.308 717.928 397.931 723.16 357.331 720.826C344.495 720.088 331.574 718.108 318.953 715.718C305.844 713.235 292.67 710.271 279.954 706.198C267.968 702.359 256.323 697.533 244.875 692.326C232.163 686.544 219.442 680.338 207.452 673.158C199.712 668.523 192.297 663.27 184.964 658.021C171.586 648.446 158.887 638.512 147.902 626.178Z"/>
	<defs>
		<linearGradient id="gradient_1" gradientUnits="userSpaceOnUse" x1="386.59766" y1="610.24438" x2="362.72992" y2="499.59885">
			<stop offset="0" stop-color="#3C096C"/>
			<stop offset="1" stop-color="#7E16AB"/>
		</linearGradient>
	</defs>
	<path fill="url(#gradient_1)" transform="scale(0.666667 0.666667)" d="M67.0661 506.754L85.628 497.438C106.33 487.956 127.946 479.572 149.521 472.347C172.187 464.757 195.324 459.399 218.718 454.614L240.39 450.146L265.296 446.913L289.305 443.941L322.657 442.527C334.288 442.145 345.824 441.475 357.475 442.115C364.4 442.494 371.368 443.861 378.233 444.839L419.588 450.798L460.338 456.621L479.629 459.423L513.85 467.342L563.192 478.999C587.181 485.211 611.376 492.837 634.363 502.072L637.164 503.089L652.083 509.016C664.418 514.183 678.106 519.548 689.213 527.062L677.274 551.045C666.181 571.486 652.328 589.942 636.48 606.918C631.472 612.282 626.495 618.232 620.869 622.934C619.676 621.958 618.336 621.475 616.97 620.812L607.125 616.448L583.81 607.597L548.951 597.503L505.572 586.361L470.044 580.373L427.669 576.106L400.075 575.841L353.397 575.043C329.982 575.719 307.054 578.575 283.987 582.541C268.878 585.139 253.708 587.917 238.875 591.822C224.814 595.524 210.919 600.132 197.282 605.162L163.947 618.923C158.673 621.236 152.902 623.34 147.902 626.178C143.582 622.384 139.742 617.109 135.864 612.796C122.007 597.387 108.096 581.823 96.6512 564.479C94.4462 561.98 92.5968 558.363 90.8409 555.508C86.2152 547.988 82.0676 540.478 78.3737 532.44L67.0661 506.754Z"/>
	<path fill="#341E62" transform="scale(0.666667 0.666667)" d="M634.363 502.072L637.164 503.089L652.083 509.016L651.906 509.29C649.764 512.724 649.473 516.796 647.753 520.365C644.378 527.367 637.162 532.511 630.562 536.295C627.452 538.078 624.328 539.761 620.834 540.646C615.077 542.105 609.017 542.289 603.344 543.904C599.458 545.011 595.909 547.792 591.865 548.177C591.017 548.257 589.707 547.558 588.891 547.246C587.344 546.655 585.739 546.233 584.145 545.79L584.132 545.762C577.924 543.638 571.072 542.406 564.711 540.754L551.66 537.222C550.015 536.83 547.878 536.115 546.186 536.185C542.043 536.355 536.687 538.461 532.629 539.516L519.75 542.447C515.257 543.453 510.272 545.821 505.688 545.922L504.562 544.386C503.259 545.018 503.943 546.229 503.303 547.312C503.046 547.748 501.989 548.424 501.562 548.784C499.141 549.037 495.584 547.735 493.125 547.223C488.867 546.336 484.317 545.774 480.157 544.594L479.816 543.938L480.377 543.377L480.656 543.377L481.125 543.566L481.688 543.191L481.969 543.656L482.719 543.377L483.188 543.191L484.125 542.816L484.688 542.441L485.25 543L485.719 542.627L486.094 542.906L486.469 542.627L487.031 542.439L487.406 542.252C488.885 541.924 486.596 542.769 488.531 542.064L488.906 541.877C489.991 541.66 489 542.129 489.879 541.689L490.219 541.502L490.5 541.688L491.25 541.5L491.719 541.127L492.094 541.406C492.469 541.127 492.8 540.954 493.219 540.752L493.594 541.031L493.969 540.752L494.438 540.75L494.812 540.191L495.375 540.75L495.844 540.377L496.125 540.562L496.875 540.191L497.438 539.816L497.719 540.281L498.469 539.627C498.854 539.881 498.638 539.812 499.125 539.812C499.646 539.424 499.366 539.613 499.969 539.252L500.344 539.531L501.094 539.252L501.469 539.531L502.031 539.156L502.406 538.877L503.156 539.064L504.188 537.941L504.748 538.127L504.934 538.688L505.688 537.941L506.25 538.5L506.719 538.127C507.104 538.381 506.888 538.312 507.375 538.312C507.896 537.924 507.616 538.113 508.219 537.752L508.688 537.75L509.062 537.191L509.625 537.658L510.094 537.377L510.469 537.656L510.658 537.375L510.938 536.816L511.219 537.281L511.688 536.816L512.25 537L512.719 536.627L513.094 536.906L513.562 536.441L514.125 536.625L514.594 536.252L514.875 536.438L515.812 535.691L516.375 536.25L516.844 535.877L517.219 536.156C517.906 535.862 517.763 536.009 518.197 535.578L518.438 535.316L519 535.875C519.293 535.301 519.114 535.617 519.562 534.941L521.438 535.125L522.188 534.191L522.75 534.75L523.219 534.377L523.594 534.656L524.062 534.191L524.625 534.375L525.188 533.816L525.75 534L526.219 533.627L526.594 533.906L527.062 533.441L527.625 533.625L528.094 533.252L528.469 533.531L529.312 532.691L529.875 533.25L530.344 532.877L530.719 533.156L530.908 532.875L531.188 532.316L531.375 532.688L532.312 531.941L532.875 532.5L533.344 532.127L533.719 532.406L533.908 532.125L534.187 531.566L534.75 532.125L535.312 531.566L535.875 531.75L536.344 531.377C536.896 531.788 536.564 531.678 537.375 531.562C537.896 531.174 537.616 531.363 538.219 531.002L538.594 531.281L539.438 530.441L540 531L540.469 530.627L540.844 530.906L541.594 530.252L541.969 530.531L542.438 530.066L543 530.25L543.469 529.877C543.854 530.131 543.638 530.062 544.125 530.062C544.554 529.743 544.84 529.657 545.344 529.502L545.719 529.781L546.562 528.941L547.125 529.5L547.688 528.941L547.969 529.406L548.719 528.752L549.094 529.031L549.283 528.75L549.562 528.191L550.125 528.75L550.688 528.191L550.969 528.656L551.812 527.816L552.094 528.281L552.562 527.816L553.125 528L553.688 527.441L554.25 528L554.812 527.441L555.375 527.625L555.844 527.252L556.125 527.438L556.969 526.877C557.434 527.184 557.139 527.047 557.906 527.156L558.281 526.877L558.658 526.875L558.938 526.316L559.219 526.781L560.062 525.941L560.625 526.5L561.188 525.941L561.559 526.312L561.658 526.125L561.938 525.566L562.5 526.125L563.062 525.566L563.625 525.75L564.188 525.191L564.75 525.75L565.312 525.191L565.875 525.375L566.344 525.002L566.719 525.281L566.908 525L567.188 524.441L567.75 525L568.219 524.627L568.594 524.906L569.344 524.252L569.719 524.531L570.188 524.066L570.75 524.25L571.219 523.877L571.594 524.156L572.438 523.316L573 523.875L573.562 523.316L574.125 523.5L574.594 523.127L574.969 523.406L575.438 522.941L576 523.125L576.562 522.566L577.125 522.75L577.594 522.377C578.146 522.788 577.814 522.678 578.625 522.562C579.146 522.174 578.866 522.363 579.469 522.002L579.844 522.281L580.687 521.441L581.25 522L581.719 521.627L582.094 521.906L582.844 521.252L583.219 521.531L583.688 521.066L584.25 521.25L584.719 520.877L585.094 521.156L585.938 520.316L586.5 520.875L587.062 520.316L587.438 520.875L587.812 519.941L588.375 520.5L588.844 520.127L589.219 520.406C589.922 519.709 590.426 519.941 591.375 519.941L591.938 519.566C592.492 519.579 592.996 519.594 593.544 519.483L594.938 519.191L595.312 518.816L595.875 519.375L596.344 519.002L596.812 519L597.002 518.252L597.281 518.252L597.938 518.441L598.312 518.066L598.688 518.441L599.437 517.691L599.719 518.156L600.188 517.691L600.75 517.875L601.219 517.502L601.594 517.781L602.438 516.941L602.719 517.781L603.469 517.127L603.844 517.406L604.312 516.941L604.875 517.125L605.438 516.566L605.812 516.941L606.562 516.191L606.938 516.566L607.688 515.816L607.969 516.189L608.719 516.002L609.188 516L609.562 515.441L610.125 516L610.688 515.441L611.531 515.531L611.906 515.252L612.283 515.25L612.562 514.691L612.844 515.064L613.594 514.877L613.969 515.156L614.719 514.502L615.094 514.781L615.844 514.127C616.396 514.538 616.064 514.428 616.875 514.312C617.396 513.924 617.116 514.113 617.719 513.752L618.094 514.031L618.938 513.191L619.5 513.75L619.969 513.377L620.344 513.656L620.533 513.375L620.812 512.816L621.094 513.281L621.938 512.441L622.5 513L622.969 512.627L623.344 512.906L623.812 512.441L624.375 512.625L624.938 512.066L625.5 512.25L625.969 511.877L626.344 512.156L626.812 511.691L627.375 511.875L627.937 511.316L628.219 511.781L629.062 510.941L629.625 511.5L630.094 511.127L630.469 511.406L630.658 511.125L630.938 510.566L631.309 510.938L632.062 510.191L632.625 510.658L633.094 510.377L633.469 510.656L633.658 510.375L633.938 509.816L634.219 510.281L634.969 509.627L635.344 509.906L635.719 509.627L636.188 509.625L636.937 508.691L637.219 509.531L638.062 508.691L638.438 509.25L638.719 508.502L639.094 508.781L639.938 507.941L640.5 508.5L640.969 508.127L641.438 508.125L641.812 507.566L642.188 508.125C642.309 507.168 642.17 507.6 642.562 506.816L642.75 507.188C643.52 507.444 643.351 507.451 643.688 508.125L643.969 507.377C644.521 507.158 644.32 507.311 644.627 506.998C643.528 506.428 642.441 505.86 641.252 505.498C640.213 505.182 639.301 504.653 638.252 504.373C637.713 504.23 637.492 504.191 636.981 503.897L636.473 503.592C635.651 503.143 635.075 502.673 634.363 502.072Z"/>
	<path fill="#4E0D6F" transform="scale(0.666667 0.666667)" d="M652.083 509.016C664.418 514.183 678.106 519.548 689.213 527.062L677.274 551.045C666.181 571.486 652.328 589.942 636.48 606.918C631.472 612.282 626.495 618.232 620.869 622.934C619.676 621.958 618.336 621.475 616.97 620.812L607.125 616.448L583.81 607.597L548.951 597.503L505.572 586.361L470.044 580.373C470.821 580.202 472.288 579.937 473.062 580.125C473.677 580.274 474.347 580.347 474.938 580.5C475.972 580.768 476.985 580.624 477.938 580.875C478.675 581.07 479.527 581.048 480.188 581.25C481.133 581.539 481.953 581.382 482.812 581.625C483.49 581.817 484.044 581.833 484.688 582C485.576 582.23 486.506 582.147 487.312 582.375C487.99 582.567 488.544 582.583 489.188 582.75C490.396 583.063 489.374 583.015 490.224 583.073C490.814 583.113 491.36 583.096 491.947 583.213L492.375 583.312L493.312 583.5C494.371 583.864 493.548 583.756 494.561 583.834C495.288 583.89 495.032 583.834 495.674 583.963L496.125 584.062L497.062 584.25C498.039 584.586 498.795 584.372 499.688 584.625C500.365 584.817 500.919 584.833 501.562 585C502.514 585.247 502.908 585.31 503.906 585.281C503.656 584.78 503.664 584.426 503.625 583.875C504.569 582.458 503.437 580.5 504.281 579.094C504.326 580.309 504.057 581.305 504.934 582.188L504.75 583.125L505.594 584.156L506.25 583.875L506.812 584.25C507.223 583.429 507.432 583.344 508.219 582.844L508.594 583.031L508.969 582.844C509.568 583.143 512.239 580.989 513.375 580.688C514.652 580.348 516.494 579.94 517.658 579.357L518.156 579.094L518.812 579.375L519.188 581.25L519.191 580.687L519.75 580.312C519.75 579.056 520.082 577.459 519.191 576.562C519.765 576.102 519.478 576.278 520.031 576.002L520.217 577.5C521.78 578.135 523.696 576.304 525.194 575.807C525.789 575.611 526.335 575.391 526.875 575.066C527.742 574.544 527.111 574.771 528.129 574.48L528.75 574.316L529.125 573.938C529.689 573.938 529.479 573.987 530.156 573.656C530.706 573.388 531.189 573.062 531.771 572.85L532.875 572.441L533.344 571.969L534 572.066C534.72 571.586 534.393 571.726 535.254 571.48L535.875 571.316L536.25 570.938C536.584 570.736 536.982 570.658 537.316 570.457L537.75 570.188L538.219 570.189L538.875 569.812C539.326 569.812 539.995 569.693 540.375 569.441L540.844 568.969L541.5 569.066L542.25 568.312L542.719 568.314L543.375 567.938C543.834 567.938 544.482 567.813 544.875 567.566C545.275 567.315 545.461 566.915 546 566.812L546.469 566.814C547.381 566.132 548.423 566.139 549.381 565.564L549.75 565.312L550.219 565.314L550.875 564.938L551.344 564.939C551.94 564.59 552.5 564.314 553.148 564.084L553.875 563.816L554.531 563.439C556.128 563.439 557.571 562.139 559.127 561.752C559.771 561.592 559.873 561.587 560.484 561.178L561 560.812C561.598 560.812 561.288 560.862 562.031 560.531C562.575 560.29 563.071 560.091 563.643 559.925L564.375 559.691C564.97 559.366 565.484 559.232 566.062 558.941L566.625 558.562L567.094 558.564C567.985 558.343 569.548 557.891 570.375 557.441C571.064 557.066 571.315 556.763 572.133 556.696L572.625 556.691C573.129 556.182 572.84 556.361 573.551 556.127L574.125 555.941C575.076 555.472 574.306 555.636 575.072 555.464C575.921 555.274 576.697 554.907 577.502 554.719C578.299 554.532 578.489 554.73 579.305 554.291L579.844 553.969L580.219 554.156L581.062 553.5L581.719 553.781L582.281 553.594L582.938 553.875L583.312 553.125L583.969 553.406L584.531 553.219L585.188 553.5L585.562 552.75L586.219 553.031L586.594 552.844C587.395 552.958 587.78 552.915 588.562 552.75L588.938 552L589.594 552.281L590.531 551.531L590.25 551.062C590.312 550.689 590.16 550.199 590.437 549.941C590.668 549.727 592.48 549.765 593.25 549.188C593.863 549.188 593.51 549.237 594.281 548.906L593.812 548.25C593.213 548.455 592.853 548.619 592.348 549.023L591.938 549.375L591.656 548.719C590.984 548.701 590.661 548.657 590.045 548.35L589.5 548.062L588.75 547.875C588.002 547.54 587.699 547.224 586.84 547.102C585.877 546.964 585.173 546.495 584.209 546.357L583.594 546.281L584.145 545.79C585.739 546.233 587.344 546.655 588.891 547.246C589.707 547.558 591.017 548.257 591.865 548.177C595.909 547.792 599.458 545.011 603.344 543.904C609.017 542.289 615.077 542.105 620.834 540.646C624.328 539.761 627.452 538.078 630.562 536.295C637.162 532.511 644.378 527.367 647.753 520.365C649.473 516.796 649.764 512.724 651.906 509.29L652.083 509.016Z"/>
	<defs>
		<linearGradient id="gradient_2" gradientUnits="userSpaceOnUse" x1="297.09503" y1="518.09155" x2="280.30484" y2="441.41299">
			<stop offset="0" stop-color="#8717A8"/>
			<stop offset="1" stop-color="#DA22CF"/>
		</linearGradient>
	</defs>
	<path fill="url(#gradient_2)" transform="scale(0.666667 0.666667)" d="M67.0661 506.754L85.628 497.438C106.33 487.956 127.946 479.572 149.521 472.347C172.187 464.757 195.324 459.399 218.718 454.614L240.39 450.146L265.296 446.913L289.305 443.941L322.657 442.527C334.288 442.145 345.824 441.475 357.475 442.115C364.4 442.494 371.368 443.861 378.233 444.839L419.588 450.798L460.338 456.621L479.629 459.423L513.85 467.342C512.865 468.057 512.611 468.372 511.309 468.188L510.75 468.559C509.807 469.053 508.184 469.265 507.093 469.699C506.62 469.886 506.186 469.974 505.688 470.059L505.125 469.684L504.184 469.312L503.998 469.781L503.717 470.25L503.438 470.809L502.873 470.998L502.334 471.186C501.466 471.475 500.788 471.584 499.875 471.562L499.5 471.934L498.844 471.561L498.188 472.309L497.625 471.75L496.781 472.498L496.406 472.219L495.75 472.312L495.748 472.873L495.188 473.059L494.719 472.594L494.344 472.873L493.969 472.594L493.873 473.248L493.312 473.434L492.844 472.969L492.188 473.809L491.625 473.25L491.062 473.809L490.594 473.344L490.498 473.998C490.063 473.998 490.293 474.054 489.844 473.719L489.188 474.559L488.719 474.094L488.344 474.373L487.875 474C487.461 474.412 487.358 474.748 486.752 474.748L486.469 474.469L486.094 474.748L485.719 474.469L485.623 475.123C485.188 475.123 485.418 475.179 484.969 474.844L484.594 475.123L484.031 475.123L483.562 475.684L483.094 475.219L482.625 475.684L482.062 476.059L481.594 475.594L481.219 475.873L480.844 475.594L480.188 476.434L479.719 475.969L479.438 476.434L478.969 475.969L478.873 476.623C478.438 476.623 478.668 476.679 478.219 476.344L477.844 476.623L477.281 476.623L476.25 477.184L475.594 476.811L475.498 477.373L474.938 477.559L474.469 477.094L474.094 477.373L473.531 477.373L472.875 477.934L472.219 477.561L471.375 478.309L470.719 477.844L470.344 478.123L469.969 477.844L469.688 478.309L469.125 478.312L468.844 478.498L468.467 478.5L468.094 478.873L467.719 478.594L467.344 478.873L466.781 478.873C466.05 478.929 466.228 478.905 465.656 479.248L465.281 478.969C464.384 479.097 464.569 479.137 464.062 479.809L463.594 479.344L463.125 479.809L462.188 480.184L461.719 479.811L460.875 480.559L460.219 480.094L459.844 480.373L459.469 480.094L459.373 480.748C458.938 480.748 459.168 480.804 458.719 480.469L458.344 480.748L457.969 480.469L457.873 481.123C457.48 481.123 457.672 481.174 457.309 480.938L456.938 481.309L456.469 480.844L455.812 481.684L455.344 481.219L454.969 481.498L454.594 481.219L454.498 481.873C454.063 481.873 454.293 481.929 453.844 481.594L453.469 481.873L453.094 481.594L452.812 482.059L452.25 482.062L451.969 482.248L451.5 481.875L451.159 482.237C450.652 482.742 450.877 482.58 450.188 482.809L449.719 482.344L448.875 483.184L448.219 482.719L447.375 483.559L446.719 483.094L446.344 483.373L445.969 483.094L445.688 483.559L445.125 483.562L444.844 483.748L444.469 483.469L444.373 484.123C443.938 484.123 444.168 484.179 443.719 483.844L443.344 484.123L442.875 483.75L442.534 484.112C442.027 484.617 442.252 484.455 441.562 484.684L441.094 484.219L440.438 485.059L439.875 484.5L439.312 485.059L438.844 484.594L438.748 485.248C438.313 485.248 438.543 485.304 438.094 484.969L437.719 485.248L437.344 484.969L437.248 485.623C436.813 485.623 437.043 485.679 436.594 485.344L436.219 485.623L435.844 485.344L435.562 485.809L435 485.812L434.719 485.998L434.25 485.625L433.406 486.373L433.031 486.094C432.103 486.226 432.132 486.832 431.625 486.934C431.362 486.986 431.229 486.404 430.969 486.469C430.584 486.565 430.51 487.212 430.125 487.309C429.531 487.457 430.116 486.361 429.094 487.123L428.719 486.844L428.438 487.309L427.875 487.312L427.594 487.498L427.219 487.219L427.123 487.873C426.688 487.873 426.918 487.929 426.469 487.594L426.094 487.873L425.719 487.594L425.438 488.059L424.875 488.062L424.594 488.248L424.125 487.875L423.784 488.237C423.277 488.742 423.502 488.58 422.812 488.809L422.344 488.344L421.969 488.623L421.594 488.344L421.498 488.998C421.063 488.998 421.293 489.054 420.844 488.719L420.469 488.998L420.094 488.719L419.998 489.373C419.563 489.373 419.793 489.429 419.344 489.094L418.969 489.373L418.594 489.094L418.312 489.559L417.75 489.562L417.469 489.748L417.094 489.469L416.998 490.123C416.563 490.123 416.793 490.179 416.344 489.844L415.969 490.123L415.5 489.75L415.159 490.112C414.652 490.617 414.877 490.455 414.188 490.684L413.719 490.219L412.875 491.059L412.219 490.594L411.844 490.873L411.469 490.594L411.373 491.248C410.938 491.248 411.168 491.304 410.719 490.969L410.344 491.248L409.969 490.969L409.873 491.623C409.438 491.623 409.668 491.679 409.219 491.344L408.844 491.623L408.469 491.344L408.188 491.809L407.625 491.812L407.344 491.998L406.875 491.625C406.536 491.962 406.338 492.373 405.844 492.373L405.375 492L404.812 492.559L404.344 492.094L404.248 492.748C403.813 492.748 404.043 492.804 403.594 492.469L403.219 492.748L402.844 492.469L402.188 493.309L401.719 492.844L401.25 493.309L400.312 493.684L399.844 493.219L399.188 494.059L398.625 493.5L398.062 494.059L397.594 493.594L397.498 494.248C397.063 494.248 397.293 494.304 396.844 493.969L396.469 494.248L396.094 493.969L395.998 494.623C395.563 494.623 395.793 494.679 395.344 494.344L394.969 494.623L394.594 494.344L393.938 495.184L393.469 494.719L393.188 495.184L392.625 495.188L392.344 495.373L391.875 495L391.312 495.559L390.844 495.094L390.748 495.748C390.313 495.748 390.543 495.804 390.094 495.469L389.719 495.748L389.344 495.469L389.248 496.123C388.813 496.123 389.043 496.179 388.594 495.844L388.219 496.123L387.844 495.844L387.562 496.309L387 496.312L386.719 496.498L386.25 496.125L385.406 496.873L385.031 496.594C384.1 496.727 384.637 496.543 384 496.967L383.531 497.248L383.156 496.969L382.5 497.062L382.498 497.623C382.063 497.623 382.293 497.679 381.844 497.344L381.469 497.623L381.094 497.344L380.625 497.809L379.969 497.719L379.594 497.998L379.219 497.719L379.123 498.373L378.562 498.559L378.094 498.094L377.719 498.373L377.344 498.094L377.248 498.748C376.813 498.748 377.043 498.804 376.594 498.469L376.219 498.748L375.844 498.469L375.188 499.309L374.625 498.75L374.062 499.309L373.594 498.844L373.498 499.498C373.063 499.498 373.293 499.554 372.844 499.219L372 500.059L371.344 499.594L370.969 499.873L370.594 499.594L369.938 500.434L369.469 499.969L369.094 500.248L368.719 499.969L368.623 500.623L368.062 500.809L367.594 500.344L367.219 500.623L366.844 500.344L366.748 500.998L366.188 501.184L365.719 500.719L365.438 501.184L364.875 501.188L364.594 501.373L364.125 501C363.62 501.502 363.767 501.557 363 501.562L362.719 501.748L362.25 501.375L361.967 501.75L361.594 502.123L361.219 501.844L360.844 502.123L360.375 501.75C359.87 502.252 360.017 502.307 359.25 502.312L358.969 502.498L358.594 502.219L358.498 502.873L357.938 503.059L357.469 502.594L357.094 502.873L356.719 502.594L356.623 503.248L356.062 503.434L355.594 502.969L355.312 503.434L354.75 503.438L354.469 503.623L354 503.25L353.438 503.809L352.875 503.25L352.312 503.809L351.844 503.344L351.375 503.809C350.067 503.81 347.939 503.477 346.875 504.184C346.189 504.25 345.689 504.286 345 504.188L344.719 504.656L344.342 504.75L343.688 505.684C343.074 505.441 343.354 505.599 342.844 505.219L342.748 505.873L342.188 506.059L341.719 505.594L341.623 506.248C341.188 506.248 341.418 506.304 340.969 505.969L340.5 506.434C339.916 506.841 338.737 506.715 337.875 507.184L337.219 506.719L336.375 507.559L335.719 507.186C334.849 507.707 333.956 507.522 333.562 508.309L333.094 508.123C331.853 507.9 332.101 509.11 330.844 508.219L330.748 508.873L330.188 509.059L329.719 508.594L329.344 508.873L328.875 508.5C328.37 509.002 328.517 509.057 327.75 509.062L327.469 509.248L326.998 509.248L326.25 509.809L325.684 509.438L325.125 509.809L324.656 509.998L324.281 509.719L323.438 510.559L323.062 510.184C322.51 510.343 321.95 510.43 321.469 510.748L321 510.375C320.591 510.916 320.787 510.61 320.438 511.309C319.824 511.066 320.104 511.224 319.594 510.844L319.125 511.309L318.188 511.684L317.719 511.311L317.062 512.059L316.594 511.594L316.125 512.059L315.469 511.686L315.373 512.248C314.582 512.248 314.111 512.2 313.406 512.623L313.031 512.344C312.627 512.487 312.278 512.636 311.895 512.828C310.976 513.287 310.836 512.513 310.312 513.559L309.844 513.373C309.302 513.276 308.786 513.456 308.344 513.748L307.875 513.467C307.445 513.897 307.652 513.631 307.312 514.309C306.699 514.066 306.979 514.224 306.469 513.844L306.094 514.123L305.719 513.844L305.623 514.498L305.062 514.684L304.594 514.219L304.498 514.873L303.938 515.059L303.469 514.594L303.094 514.873L302.719 514.594L301.875 515.434L301.219 514.969L301.123 515.623C300.688 515.623 300.918 515.679 300.469 515.344L300.094 515.623L299.625 515.25C299.216 515.791 299.412 515.485 299.062 516.184C298.449 515.941 298.729 516.099 298.219 515.719L297.938 516.184L297.375 516.188L297.094 516.373L296.625 516C296.286 516.337 296.088 516.748 295.594 516.748L295.219 516.469L294.562 517.309L294.094 516.844L293.719 517.123L293.25 516.75C292.745 517.252 292.892 517.307 292.125 517.312L291.844 517.498L291.375 517.125C290.966 517.666 291.162 517.36 290.812 518.059C290.199 517.816 290.479 517.974 289.969 517.594L289.594 517.873L289.219 517.594L289.123 518.248L288.562 518.434L288.094 517.969L287.719 518.248L287.25 517.875L286.921 518.214C286.545 518.588 286.178 518.878 285.75 519.184L285.094 519.094L284.998 519.748C284.519 519.748 284.792 519.806 284.25 519.375L283.688 519.934L283.125 519.375L282.562 519.934L282 519.375L281.438 519.934L280.969 519.469L280.5 519.934C279.612 519.936 279.389 519.801 278.625 520.309C277.759 520.312 277.909 520.281 277.125 520.684C276.835 520.833 276.416 520.873 276.094 520.873L275.719 520.594L275.344 520.873L274.875 520.5C274.536 520.837 274.338 521.248 273.844 521.248L273.469 520.969L273.094 521.248L272.719 520.969L272.623 521.623L272.062 521.809L271.594 521.344L271.219 521.623L270.844 521.344L270.188 522.184L269.625 521.625C269.216 522.166 269.412 521.86 269.062 522.559C268.449 522.316 268.729 522.474 268.219 522.094L267.844 522.373L267.469 522.094L267.373 522.748L266.812 522.934L266.344 522.469L265.688 523.309L265.219 522.844L264.844 523.123L264.469 522.844L263.812 523.684L263.344 523.219L262.969 523.498L262.594 523.219L261.938 524.059L261.375 523.5L260.812 524.059L260.344 523.594L259.688 524.434L259.219 523.969L259.123 524.623L258.562 524.809L258.094 524.344L257.719 524.623L257.344 524.344L256.688 525.184L256.125 524.625L255.842 525L255.469 525.373L255.094 525.094L254.719 525.373L254.25 525C253.911 525.337 253.713 525.748 253.219 525.748L252.844 525.469L252.188 526.309L251.719 525.844L251.344 526.123L250.969 525.844L250.5 526.309L249.844 526.219L249.469 526.498L249.094 526.219L248.438 527.059L247.875 526.5L247.312 527.059L246.844 526.594L246.748 527.248L246.188 527.434L245.719 526.969L245.062 527.809L244.594 527.344L244.219 527.623L243.844 527.344L243 528.184L242.344 527.719L242.062 528.184L241.5 528.188L241.219 528.373L240.844 528.094L240.375 528.559L239.812 528.934L239.344 528.469L238.969 528.748L238.594 528.469L238.498 529.123L237.938 529.309L237.469 528.844L237.094 529.123L236.719 528.844L235.875 529.684L235.219 529.219L235.123 529.873L234.562 530.059L234.094 529.594L233.719 529.873L233.344 529.594L233.248 530.248L232.688 530.434L232.219 529.969L231.938 530.434L231.375 530.438L231.094 530.623L230.625 530.25L230.062 530.809L229.594 530.344L228.938 531.184L228.375 530.625C227.966 531.166 228.162 530.86 227.812 531.559C227.199 531.316 227.479 531.474 226.969 531.094L226.594 531.373L226.219 531.094L226.123 531.748L225.562 531.934L225.094 531.469L224.998 532.123L224.438 532.309L223.969 531.844L223.594 532.123L223.125 531.75L222.842 532.125L222.469 532.498L222.094 532.219L221.719 532.498L221.344 532.219L220.688 533.059L220.125 532.5C219.62 533.002 219.767 533.057 219 533.062L218.719 533.248L218.25 532.875C217.841 533.416 218.037 533.11 217.688 533.809C217.074 533.566 217.354 533.724 216.844 533.344L216.469 533.623L216.094 533.344L215.998 533.998L215.438 534.184L214.969 533.719L214.312 534.559L213.844 534.094L213.469 534.373L213.094 534.094L212.438 534.934L211.969 534.469L211.594 534.748L211.219 534.469L210.562 535.309L210.094 534.844L209.625 535.309L208.969 535.219L208.594 535.498L208.125 535.125C207.716 535.666 207.912 535.36 207.562 536.059C206.949 535.816 207.229 535.974 206.719 535.594L206.344 535.873L205.969 535.594L205.312 536.434L204.844 535.969L204.469 536.248L204.094 535.969L203.438 536.809L202.969 536.344L202.5 536.809L201.844 536.344L201.748 536.998L201 537.092L200.531 537.373L200.156 537.094C199.389 537.203 199.684 537.066 199.219 537.373L198.844 537.094L198.748 537.748L198.188 537.934L197.719 537.469L197.062 538.309L196.594 537.844L196.219 538.123L195.844 537.844L195.188 538.684L194.719 538.219L194.344 538.498L193.969 538.219L193.312 539.059L192.844 538.594L192.375 539.059L191.719 538.969L191.344 539.248L190.875 538.875C190.466 539.416 190.662 539.11 190.312 539.809C189.699 539.566 189.979 539.724 189.469 539.344L189.094 539.623L188.719 539.344L188.623 539.998L188.062 540.184L187.594 539.719L186.938 540.559L186.469 540.094L186.094 540.373L185.719 540.094L185.062 540.934L184.594 540.469L184.219 540.748L183.844 540.469L183.188 541.309L182.625 540.75L182.062 541.309L181.594 540.844L181.498 541.498L180.938 541.684L180.469 541.219L180.373 541.873L179.812 542.059L179.344 541.594L178.969 541.873L178.594 541.594L178.498 542.248L177.938 542.434L177.469 541.969L176.812 542.809L176.344 542.344L175.969 542.623L175.594 542.344L175.125 542.809L174.562 543.184L174.094 542.719L173.719 542.998L173.344 542.719L173.248 543.373L172.688 543.559L172.219 543.094L171.562 543.934L171.094 543.469L170.719 543.748L170.25 543.375L169.967 543.75L169.594 544.123L169.219 543.844L168.844 544.123L168.469 543.844L167.625 544.684L166.969 544.219L166.688 544.684L166.125 544.688L165.844 544.873L165.375 544.5C165.036 544.837 164.838 545.248 164.344 545.248L163.969 544.969L163.594 545.248L163.219 544.969L163.123 545.623L162.562 545.809L162.094 545.344L161.719 545.623L161.344 545.344L161.248 545.998L160.688 546.184L160.219 545.719L159.562 546.559L159.094 546.094L158.719 546.373L158.344 546.094L157.875 546.559L157.219 546.469L156.844 546.748L156.469 546.469L155.812 547.309L155.25 546.75L154.688 547.309L154.219 546.936L154.123 547.498L153.562 547.684L153.094 547.219L152.998 547.873L152.438 548.059L151.969 547.594L151.594 547.873L151.219 547.594L150.562 548.434L150.094 547.969L149.719 548.248L149.344 547.969L149.248 548.623L148.688 548.809L148.219 548.344L147.562 549.184L147.094 548.719L146.719 548.998L146.25 548.625L145.967 549L145.594 549.373L145.219 549.094L144.844 549.373L144.469 549.094L143.625 549.934L142.969 549.469L142.688 549.934L142.125 549.938L141.844 550.123L141.375 549.75L140.812 550.309L140.344 549.844L140.248 550.498L139.688 550.684L139.219 550.219L139.123 550.873L138.562 551.059L138.094 550.594L137.719 550.873L137.344 550.594L137.248 551.248L136.688 551.434L136.219 550.969L135.562 551.809L135.094 551.344L134.719 551.623L134.344 551.344L133.875 551.809L133.219 551.719L132.844 551.998L132.469 551.719L132.373 552.373L131.812 552.559L131.344 552.094L130.969 552.373L130.594 552.094L129.938 552.934L129.375 552.375L129.092 552.75L128.719 553.123L128.344 552.844L127.969 553.123L127.5 552.842L126.938 553.309L126.375 553.312L126.094 553.498L125.625 553.125C125.216 553.666 125.412 553.36 125.062 554.059C124.449 553.816 124.729 553.974 124.219 553.594L123.844 553.873L123.467 553.875L123.188 554.434L122.719 554.248L122.156 554.248L121.688 554.809L121.219 554.344L120.844 554.623L120.469 554.344L119.812 555.184L119.344 554.719L118.969 554.998L118.594 554.719L118.498 555.373L117.938 555.559L117.469 555.094L117.094 555.373L116.719 555.094L116.062 555.934L115.5 555.375L115.217 555.75L114.844 556.123L114.469 555.844L114.094 556.123L113.719 555.844L113.062 556.684L112.594 556.219L112.219 556.498L111.844 556.219L111.188 557.059L110.625 556.5C110.12 557.002 110.267 557.057 109.5 557.062L109.219 557.248L108.75 556.875C108.341 557.416 108.537 557.11 108.188 557.809C107.574 557.566 107.854 557.724 107.344 557.344L106.969 557.623L106.594 557.344L106.498 557.998L105.938 558.184L105.469 557.719L105.373 558.373C104.869 558.373 105.09 558.46 104.719 558.094L104.344 558.373L103.969 558.094L103.125 558.934L102.469 558.469L102.373 559.123C101.938 559.123 102.168 559.179 101.719 558.844L101.25 559.309C100.792 559.629 100.666 559.412 100.125 559.592L99.6562 559.873L99 560.062L98.4375 560.809L97.9688 560.436L97.8731 560.998L97.125 561.559L96.5588 561.188L96.4845 561.721C96.3648 562.454 96.4574 562.175 96.0938 562.781L96.3866 563.149L97.3147 564.485L96.6512 564.479C94.4462 561.98 92.5968 558.363 90.8409 555.508C86.2152 547.988 82.0676 540.478 78.3737 532.44L67.0661 506.754Z"/>
	<defs>
		<linearGradient id="gradient_3" gradientUnits="userSpaceOnUse" x1="661.98486" y1="285.89359" x2="49.873508" y2="262.88803">
			<stop offset="0" stop-color="#07010C" stop-opacity="0.98823529"/>
			<stop offset="1" stop-color="#440062"/>
		</linearGradient>
	</defs>
	<path fill="url(#gradient_3)" transform="scale(0.666667 0.666667)" d="M237.59 69.245C251.33 61.6371 265.808 55.9878 280.688 50.9953C342.252 30.3392 409.621 27.7577 472.168 45.7858C504.369 55.0671 535.159 68.6289 563.581 86.3741L589.737 104.159C613.365 122.394 635.615 144.165 653.509 168.088C656.287 171.802 659.417 175.567 661.684 179.609C663.631 182.56 665.315 185.542 666.672 188.812L666.171 189.37L666.097 189.54C666.911 189.869 667.113 189.794 667.599 190.565C671.481 191.985 675.296 200.061 677.232 203.531L688.998 226.076C697.55 244.536 704.111 263.886 708.767 283.688C712.421 299.229 714.315 314.66 715.934 330.501C721.817 388.045 718.875 448.195 698.608 502.875L689.213 527.062C678.106 519.548 664.418 514.183 652.083 509.016L637.164 503.089L634.363 502.072C611.376 492.837 587.181 485.211 563.192 478.999L513.85 467.342L479.629 459.423L460.338 456.621L419.588 450.798L378.233 444.839C371.368 443.861 364.4 442.494 357.475 442.115C345.824 441.475 334.288 442.145 322.657 442.527L289.305 443.941L265.296 446.913L240.39 450.146L218.718 454.614C195.324 459.399 172.187 464.757 149.521 472.347C127.946 479.572 106.33 487.956 85.628 497.438L67.0661 506.754C64.0843 499.949 62.0092 492.629 59.9779 485.491C56.048 471.683 53.3737 457.778 51.0178 443.625C47.8404 424.537 45.6525 404.859 45.4857 385.497C45.1593 347.593 49.3067 309.47 60.1232 273.056C64.2733 259.084 69.7763 245.528 75.9546 232.346C91.8141 198.507 113.126 167.432 139.369 140.779C143.843 136.235 171.42 108.729 175.875 108.695L176.648 109.46L176.852 108.776C187.572 98.7913 201.004 91.2785 213.306 83.3874L229.498 73.3967C232.161 71.8769 234.656 70.2029 237.59 69.245ZM667.599 190.565C667.37 192.832 667.194 195.214 666.409 197.365C663.357 205.731 654.117 212.675 647.369 218.175L638.064 225.4C637.467 225.845 635.385 227.131 635.132 227.701L635.541 228.279L636 228.092L636.439 227.986C637.062 227.797 637.396 227.476 637.875 227.059C638.797 227.059 639.276 227.214 640.055 226.695C640.827 226.18 641.03 226.375 641.812 226.125L642.938 225.559L643.873 225.373L644.606 225.08C645.414 224.753 645.047 224.81 645.75 224.812L646.242 224.473C647.162 223.86 647.556 223.73 648.562 223.5L649.219 223.219L649.718 223.358C650.378 223.537 650.904 223.466 651.562 223.684L652.125 223.309C653.33 223.215 654.039 223.14 655.125 222.562L655.781 222.656C656.238 222.403 656.419 222.14 656.942 222.269C658.147 222.566 659.099 222.382 659.816 223.5C660.464 224.511 660.214 226.254 660.188 227.441L659.816 228C658.953 229.388 659.418 232.686 659.418 234.42L659.441 253.688L659.906 254.156L659.627 254.531L659.906 254.906L659.441 255.375C659.441 256.701 659.027 259.645 659.906 260.531L659.441 260.812L660 261.184C660.306 262.107 660.162 261.39 660.094 262.406C659.992 263.939 659.733 267.618 660.562 268.875C660.572 270.278 660.218 273.04 660.941 274.125C660.941 275.755 660.495 279.643 661.316 280.875C661.316 282.398 660.927 286.103 661.691 287.25C661.689 288.178 661.845 288.704 661.316 289.5L661.363 289.892C661.476 290.906 661.477 291.701 661.363 292.717C661.105 295.031 661.301 297.551 661.306 299.886C661.308 300.97 661.547 302.088 660.941 303C660.941 305.709 661.56 318.004 660.566 319.5C660.565 320.933 660.952 323.604 660.191 324.75C660.19 325.994 660.495 327.854 659.816 328.875C659.815 329.942 660.04 330.975 659.441 331.875C659.439 332.803 659.595 333.329 659.066 334.125C659.063 334.917 659.159 334.921 658.691 335.625C658.663 336.796 658.487 337.699 658.316 338.812L658.312 339.941L657.941 340.5C657.939 341.512 658.035 341.855 657.566 342.75L657.377 343.502L657.272 343.946C657.163 344.496 657.177 345.009 657.188 345.566L656.816 346.125C656.813 346.917 656.909 346.921 656.441 347.625C656.439 348.553 656.595 349.079 656.066 349.875C656.063 350.667 656.159 350.671 655.691 351.375C655.689 352.303 655.845 352.829 655.316 353.625C655.313 354.417 655.409 354.421 654.941 355.125C654.94 356.223 655.15 357.186 654.566 358.125C653.981 359.066 654.159 360.254 654.188 361.316L653.816 361.875C653.814 362.803 653.97 363.329 653.441 364.125C653.469 365.523 653.599 366.746 653.066 368.062C652.32 369.906 653.29 372.789 652.316 374.25C652.315 375.317 652.54 376.35 651.941 377.25C651.94 378.494 652.245 380.354 651.566 381.375C651.512 382.276 651.434 383.102 651.562 384L651.191 384.375C651.221 386.135 651.137 387.383 650.816 389.062C650.591 390.241 651.142 391.195 650.441 392.25C650.44 393.855 650.787 396.125 650.066 397.5L649.877 398.252L649.772 398.647C649.473 400.156 650.146 402.251 649.316 403.5C649.346 405.01 649.194 405.992 648.941 407.438C648.696 408.839 649.367 410.549 648.566 411.75C648.564 412.678 648.72 413.204 648.191 414C648.19 415.238 648.581 418.853 647.816 419.625C647.814 420.623 648.005 421.401 647.441 422.25C647.466 424.648 647.59 426.874 647.066 429.188L647.062 431.066L646.691 431.625C646.69 433.252 647.134 437.145 646.316 438.375C646.315 439.524 646.564 441.188 645.941 442.125L645.922 442.857C645.89 443.637 645.748 444.059 645.377 444.752L645.042 445.39C644.323 446.708 643.246 447.772 642.002 448.502C641.215 448.964 640.602 449.845 639.752 450.377L638.812 451.316C637.693 451.538 637.685 451.732 636.941 452.625L636.941 454.312C637.425 454.614 637.69 454.791 638.258 454.902C637.738 455.39 636.83 455.921 636.863 456.666C636.923 458.018 637.8 458.929 638.768 459.763L637.877 459.819L638.064 460.219L637.691 460.875C637.886 461.661 638.248 462.168 639 462.559C639.38 462.756 639.356 462.643 639.752 462.748L640.303 462.936C640.974 463.16 641.586 463.242 642.27 463.38C643.293 463.586 644.041 464.151 644.816 464.812L645.002 465.373L645.566 466.125C645.566 466.922 645.468 466.916 645.941 467.625C645.973 469.038 645.886 469.859 645.566 471.188L645.562 472.875L645.191 473.25C645.191 475.271 644.573 480.761 645.566 482.25C645.566 483.047 645.468 483.041 645.941 483.75C645.941 484.753 645.748 485.523 646.316 486.375C646.316 487.378 646.123 488.148 646.691 489C646.722 490.374 646.755 491.27 646.316 492.562C645.446 495.126 644.979 496.6 642.574 498.203C641.242 499.091 640.396 499.353 638.812 499.316C638.463 499.842 638.286 500.231 638.066 500.812L638.625 501.562C638.162 502.026 638.427 501.938 637.875 501.938L637.164 503.089L652.083 509.016C664.418 514.183 678.106 519.548 689.213 527.062L698.608 502.875C718.875 448.195 721.817 388.045 715.934 330.501C714.315 314.66 712.421 299.229 708.767 283.688C704.111 263.886 697.55 244.536 688.998 226.076L677.232 203.531C675.296 200.061 671.481 191.985 667.599 190.565ZM374.612 304.883C368.315 310.925 360.587 315.169 353.826 320.645L345.74 326.446L327.766 340.207L310.533 354.484C298.679 364.431 286.261 374.732 277.351 387.521C274.493 391.624 271.486 396.134 271.093 401.25C270.85 404.409 270.766 407.052 272.925 409.566C277.427 414.809 287.567 415.303 293.977 415.411C304.413 415.586 315.058 413.803 325.288 411.923C347.107 407.912 368.517 401.84 389.36 394.267L425.562 379.688L425.422 379.231C422.408 377.083 418.898 375.632 415.647 373.875L404.688 367.355L394.875 360.776C392.923 359.357 391.042 357.554 388.865 356.531L388.901 356.346C387.316 353.892 385.334 351.814 383.727 349.381C382.879 348.098 382.405 346.622 381.577 345.381C381.178 344.782 380.882 344.238 380.564 343.596L379.909 343.404C380.206 343.141 380.46 342.855 380.727 342.562C377.771 334.891 376.746 327.863 375.287 319.882L374.954 317.27C376.085 313.984 375.406 308.985 375.29 305.475L374.612 304.883ZM666.097 189.54L650.045 190.217C628.441 192.302 606.442 195.716 585.375 201.011C568.109 205.35 551.382 211.019 534.645 217.036C519.015 222.655 502.186 228.88 488.694 238.758C489.551 239.134 490.308 239.58 491.254 239.602L493.05 240.95C495.347 241.677 497.433 243.235 499.414 244.571C504.223 247.813 508.653 251.535 512.749 255.637C514.144 257.034 516.044 258.653 516.947 260.419L517.429 261.615L475.549 286.721L467.461 291.546C467.042 291.785 465.812 292.647 465.393 292.687L410.062 325.249L386.045 339.518C384.294 340.659 381.713 341.842 380.564 343.596C380.882 344.238 381.178 344.782 381.577 345.381C382.405 346.622 382.879 348.098 383.727 349.381C385.334 351.814 387.316 353.892 388.901 356.346L510.398 280.853C514.304 277.774 518.978 275.385 523.125 272.617L540.122 260.827C551.894 252.836 563.745 244.919 574.654 235.757C579.176 231.958 583.808 228.044 587.591 223.487C590.309 220.212 592.807 216.872 592.42 212.438C591.562 210.981 590.45 210.147 589.152 209.113L589.847 208.674C589.655 208.3 589.618 208.189 589.312 207.822C587.941 206.176 587.206 206.441 585.188 206.441L585.184 205.688L585.375 205.5L585.938 206.059L586.873 205.873L586.875 205.125L587.438 205.684L588.184 205.312L588.373 204.373L589.083 203.681L589.302 203.139C591.561 201.992 595.532 201.547 598.059 201C611.889 198.005 626.054 195.224 640.185 194.168C639.577 194.55 638.979 194.9 638.438 195.375L639.562 195.941L639.002 196.127L638.816 196.688C639.413 197.305 639.814 197.628 640.594 197.998L641.625 198.559L642.375 198.467C643.273 199.009 644.28 199.508 644.812 200.441L639.938 200.441L639.938 201C640.595 201.438 641.845 201.536 642.002 202.406C642.328 204.217 642.709 204.583 643.502 206.248L644.066 206.625L644.252 207.373L644.908 207.375C645.263 207.9 645.44 208.252 645.562 208.875L645.236 209.191C644.425 210.007 643.693 210.69 643.688 211.875L642.941 212.062C643.013 212.733 643.142 212.733 642.739 213.311C642.183 214.107 641.772 214.551 641.906 215.531L641.522 215.883C641.007 216.4 640.795 216.849 640.502 217.502C639.603 218.04 639.829 217.824 639.377 218.719L638.648 219.561L639.461 220.109L638.946 220.577C633.559 225.401 626.987 229.542 621.034 233.646L561.55 271.094L552.954 276.224C550.123 277.782 546.74 279.058 544.528 281.438L544.791 282.133C546.718 282.223 548.849 281.285 550.574 280.472C557.279 277.314 563.744 272.911 570.102 269.09L624.86 234.342C628.229 232.182 631.638 229.584 635.132 227.701C635.385 227.131 637.467 225.845 638.064 225.4L647.369 218.175C654.117 212.675 663.357 205.731 666.409 197.365C667.194 195.214 667.37 192.832 667.599 190.565C667.113 189.794 666.911 189.869 666.097 189.54ZM661.684 179.609C661.503 181.026 661.214 181.629 660.188 182.625L659.627 182.627C658.995 182.962 658.595 183.277 658.101 183.777C657.308 184.582 657.893 184.138 657.002 184.502L654.165 185.933C653.706 186.162 653.372 186.283 652.877 186.377C652.741 186.996 652.691 187.417 652.688 188.066C651.979 188.39 651.592 188.486 650.812 188.441L650.438 188.816L647.812 188.816L647.25 189.75C647.919 190.298 649.161 190.062 650.045 190.217L666.097 189.54L666.171 189.37L666.672 188.812C665.315 185.542 663.631 182.56 661.684 179.609Z"/>
	<path fill="white" transform="scale(0.666667 0.666667)" d="M558.846 353.438L560.157 353.375C561.022 354.296 561.188 354.253 561.188 355.493L560.062 356.393C559.027 356.473 558.609 356.055 557.812 355.485L557.783 354.562L558.846 353.438Z"/>
	<path fill="white" transform="scale(0.666667 0.666667)" d="M615.065 380.438L616.312 380.359C617.113 381.118 617.645 381.413 617.915 382.5L617.062 383.589L615.938 383.928C614.963 383.458 614.687 383.397 614.115 382.5C614.266 381.4 614.343 381.288 615.065 380.438Z"/>
	<path fill="white" transform="scale(0.666667 0.666667)" d="M398.137 80.8125C398.39 80.769 398.75 80.6901 399.002 80.7289C400.017 80.8858 400.231 81.5326 400.75 82.3125C400.385 83.4141 400.071 83.541 399.188 84.2498L398.358 84.2426C397.424 83.7335 397.042 83.411 396.488 82.5C396.95 81.4477 397.138 81.418 398.137 80.8125Z"/>
	<path fill="white" transform="scale(0.666667 0.666667)" d="M627.566 337.688L628.675 337.684C629.327 338.614 629.442 338.815 629.56 339.938C628.834 340.982 628.796 340.942 627.562 341.295L626.906 341.087C626.034 340.65 625.839 340.215 625.516 339.375C625.994 338.422 626.666 338.154 627.566 337.688Z"/>
	<path fill="white" transform="scale(0.666667 0.666667)" d="M114.283 203.438C115.733 203.438 115.856 203.825 116.921 204.75C116.973 206.122 116.255 206.531 115.397 207.562L114.556 207.721C113.842 207.172 113.547 206.665 113.122 205.877C113.259 204.601 113.509 204.415 114.283 203.438Z"/>
	<path fill="#38194F" transform="scale(0.666667 0.666667)" d="M168.079 331.688C168.602 331.565 169.153 331.569 169.688 331.534C170.49 332.286 170.991 332.539 171.237 333.629L169.886 334.688C169.02 335.191 168.63 335.341 167.625 335.278L166.881 334.312C167.064 332.842 167.161 332.744 168.079 331.688Z"/>
	<path fill="white" transform="scale(0.666667 0.666667)" d="M334.099 232.688L335.253 232.355C336.146 232.802 336.446 233.202 336.984 234.035C336.935 235.131 336.231 235.934 335.638 236.812L335.224 237.094L334.537 236.956C333.53 235.702 333.079 235.459 333.018 233.812L334.099 232.688Z"/>
	<path fill="white" transform="scale(0.666667 0.666667)" d="M191.217 149.812C191.919 149.538 192.21 149.555 192.938 149.735C193.824 150.48 194.325 150.869 194.585 152.062C194.169 153.128 193.776 153.502 192.938 154.225C192.209 154.353 191.88 154.141 191.25 153.724C190.39 153.155 189.933 152.304 189.788 151.312L191.217 149.812Z"/>
	<path fill="white" transform="scale(0.666667 0.666667)" d="M82.3651 279.938C83.1516 279.771 83.5425 279.824 84.3226 279.938C85.1778 280.685 85.5545 280.912 85.9495 282C85.6463 283.054 84.972 283.554 84.1875 284.257C83.5562 284.522 83.3358 284.645 82.6875 284.322C81.6173 283.789 81.1901 283.087 80.9513 282C81.2422 280.955 81.5368 280.628 82.3651 279.938Z"/>
	<path fill="#DCD9E9" transform="scale(0.666667 0.666667)" d="M343.797 325.586L352.909 318.95C353.131 319.677 353.32 320.075 353.826 320.645L345.74 326.446C345.108 326.055 344.493 325.849 343.797 325.586Z"/>
	<path fill="white" transform="scale(0.666667 0.666667)" d="M209.015 315.938L209.647 316.008C210.11 317.257 210.504 318.6 211.427 319.592C211.927 320.131 211.928 320.025 212.109 320.812L209.589 323.545L205.63 320.415C207.518 319.301 208.268 318.467 208.9 316.34L209.015 315.938Z"/>
	<path fill="#6803B2" transform="scale(0.666667 0.666667)" d="M570.4 353.018C571.622 353.562 572.746 354.136 573.889 354.832C575.934 356.079 576.848 356.007 579.248 355.808L580.311 356.139C580.316 357.412 580.452 358.652 579.864 359.819L578.928 360.365C575.169 358.63 572.703 356.41 570.4 353.018Z"/>
	<path fill="white" transform="scale(0.666667 0.666667)" d="M618.002 320.438C619.534 320.183 620.976 320.169 622.312 321.091C623.379 321.827 623.691 322.419 623.999 323.625C623.467 324.498 623.072 324.534 622.154 324.938C620.791 325.258 620.369 325.3 618.979 324.87C617.479 324.405 616.903 323.834 616.182 322.5C616.719 321.306 616.974 321.172 618.002 320.438Z"/>
	<path fill="white" transform="scale(0.666667 0.666667)" d="M273.994 120.562L274.824 120.591C276.152 121.751 276.988 123.032 277.923 124.499C276.797 125.797 275.892 126.821 274.372 127.687L273.788 127.714C272.683 127.262 271.92 126.799 271.385 125.676C270.849 124.551 270.996 123.943 271.295 122.812C272.109 121.728 272.787 121.178 273.994 120.562Z"/>
	<path fill="#38194F" transform="scale(0.666667 0.666667)" d="M401.15 69.602C400.907 72.4082 400.072 73.2834 397.934 75.1038C396.537 76.2942 394.119 77.511 392.25 77.3426C390.714 77.2042 388.808 76.1598 387.788 75.0562L387.473 74.754C392.16 74.241 397.897 73.4219 401.15 69.602Z"/>
	<path fill="white" transform="scale(0.666667 0.666667)" d="M352.909 318.95C359.777 313.928 366.517 308.135 374.056 304.181L374.612 304.883C368.315 310.925 360.587 315.169 353.826 320.645C353.32 320.075 353.131 319.677 352.909 318.95Z"/>
	<path transform="scale(0.666667 0.666667)" d="M661.684 179.609C663.631 182.56 665.315 185.542 666.672 188.812L666.171 189.37L666.097 189.54L650.045 190.217C649.161 190.062 647.919 190.298 647.25 189.75L647.812 188.816L650.438 188.816L650.812 188.441C651.592 188.486 651.979 188.39 652.688 188.066C652.691 187.417 652.741 186.996 652.877 186.377C653.372 186.283 653.706 186.162 654.165 185.933L657.002 184.502C657.893 184.138 657.308 184.582 658.101 183.777C658.595 183.277 658.995 182.962 659.627 182.627L660.188 182.625C661.214 181.629 661.503 181.026 661.684 179.609Z"/>
	<path fill="#6803B2" transform="scale(0.666667 0.666667)" d="M387.473 74.754C386.825 74.261 386.226 73.7341 385.715 73.0959C383.706 70.5874 381.3 66.9459 381.805 63.5981C382.154 61.2907 383.525 59.1734 385.452 57.8688C388.223 55.9931 391.713 55.6858 394.924 56.3282C397.232 56.7901 398.97 57.8728 400.261 59.8805C402.082 62.7152 401.85 66.4365 401.15 69.602C397.897 73.4219 392.16 74.241 387.473 74.754Z"/>
	<defs>
		<linearGradient id="gradient_4" gradientUnits="userSpaceOnUse" x1="585.2641" y1="341.1199" x2="569.50598" y2="338.98541">
			<stop offset="0" stop-color="#9B09DA"/>
			<stop offset="1" stop-color="#DA23F9"/>
		</linearGradient>
	</defs>
	<path fill="url(#gradient_4)" transform="scale(0.666667 0.666667)" d="M570.4 353.018C569.533 351.669 568.58 350.264 568.025 348.75C566.532 344.68 566.869 340.172 568.656 336.263C571.021 331.087 576.183 327.922 581.328 326.05C583.709 326.129 585.09 327.121 586.753 328.722L586.217 329.184L585.868 329.002C585.14 330.438 585.083 335.015 585.427 336.618C585.903 338.834 585.207 341.432 585.135 343.688C585.077 345.487 585.3 346.954 584.701 348.692C584.258 349.979 584.393 351.354 584.441 352.694L579.248 355.808C576.848 356.007 575.934 356.079 573.889 354.832C572.746 354.136 571.622 353.562 570.4 353.018Z"/>
	<path fill="white" transform="scale(0.666667 0.666667)" d="M575.939 338.812L576.768 338.537C577.692 338.608 578.27 338.957 578.944 339.568C580.028 340.551 580.49 341.694 580.496 343.125C579.899 344.41 579.36 345.039 578.272 345.938L577.302 346.262C576.259 346.13 575.65 345.954 574.886 345.188C574.06 344.36 573.692 343.652 573.744 342.482C573.815 340.918 574.875 339.836 575.939 338.812Z"/>
	<path fill="#63EEEE" transform="scale(0.666667 0.666667)" d="M108.848 341.42L106.468 340.48C102.007 338.441 98.3918 334.393 96.7197 329.793C95.0498 325.198 95.1126 320.44 97.2128 316.01C99.7014 310.76 104.506 307.826 109.826 305.987L112.688 305.986C114.125 308.517 112.443 311.989 114.188 314.982C116.098 318.26 118.823 322.894 117.717 326.845C117.249 328.516 115.889 329.935 114.375 330.723C113.94 330.95 113.504 330.984 113.062 331.168C112.811 331.272 112.536 331.488 112.312 331.652C113.206 332.76 113.068 332.846 112.919 334.262C112.688 336.456 111.95 338.974 110.205 340.44L108.848 341.42Z"/>
	<defs>
		<linearGradient id="gradient_5" gradientUnits="userSpaceOnUse" x1="131.87091" y1="321.23178" x2="109.38075" y2="324.48233">
			<stop offset="0" stop-color="#1D9CB5"/>
			<stop offset="1" stop-color="#4DDBE2"/>
		</linearGradient>
	</defs>
	<path fill="url(#gradient_5)" transform="scale(0.666667 0.666667)" d="M109.826 305.987C114.432 304.857 119.92 305.774 123.96 308.252C127.361 310.339 130.2 313.417 131.745 317.132L131.763 317.231C133.478 321.22 134.177 324.397 132.758 328.578C130.989 333.831 127.871 337.676 122.926 340.181C118.06 342.645 114.057 342.364 108.848 341.42L110.205 340.44C111.95 338.974 112.688 336.456 112.919 334.262C113.068 332.846 113.206 332.76 112.312 331.652C112.536 331.488 112.811 331.272 113.062 331.168C113.504 330.984 113.94 330.95 114.375 330.723C115.889 329.935 117.249 328.516 117.717 326.845C118.823 322.894 116.098 318.26 114.188 314.982C112.443 311.989 114.125 308.517 112.688 305.986L109.826 305.987Z"/>
	<path fill="#1D9BB6" transform="scale(0.666667 0.666667)" d="M131.763 317.231C133.478 321.22 134.177 324.397 132.758 328.578C132.467 326.414 132.574 323.829 131.918 321.775C131.581 320.721 131.568 319.703 131.267 318.659L131.117 318.193L131.763 317.231Z"/>
	<path fill="#6803B2" transform="scale(0.666667 0.666667)" d="M406.534 151.971C410.268 151.529 414.339 152.318 417.337 154.702C420.251 157.019 422.224 160.702 422.546 164.41C422.877 168.223 422.01 171.997 419.328 174.859C416.893 177.456 413.58 178.756 410.062 178.817C406.788 178.874 402.71 177.266 400.476 174.877L400.153 174.514C398.675 173.363 397.766 172.189 397.002 170.462C395.647 167.402 395.584 163.169 396.893 160.078C398.769 155.65 402.279 153.657 406.534 151.971Z"/>
	<path fill="#ED2CFF" transform="scale(0.666667 0.666667)" d="M406.534 151.971C408.662 154.701 410.586 161.226 410.247 164.682C409.935 167.867 408.417 170.927 405.844 172.874C404.073 174.214 402.308 174.384 400.153 174.514C398.675 173.363 397.766 172.189 397.002 170.462C395.647 167.402 395.584 163.169 396.893 160.078C398.769 155.65 402.279 153.657 406.534 151.971Z"/>
	<path fill="white" transform="scale(0.666667 0.666667)" d="M400.619 162.188C401.371 162.097 401.825 161.936 402.554 162.2C404.151 162.778 405.054 164.263 405.664 165.75C405.222 167.366 404.279 168.271 403.167 169.447C402.698 169.688 402.326 169.865 401.788 169.884C400.405 169.935 400.244 169.448 399.296 168.562C398.994 167.78 398.697 167.002 398.727 166.15C398.789 164.363 399.333 163.364 400.619 162.188Z"/>
	<defs>
		<linearGradient id="gradient_6" gradientUnits="userSpaceOnUse" x1="350.2663" y1="169.99454" x2="324.04028" y2="166.5668">
			<stop offset="0" stop-color="#4B006F"/>
			<stop offset="1" stop-color="#7901BB"/>
		</linearGradient>
	</defs>
	<path fill="url(#gradient_6)" transform="scale(0.666667 0.666667)" d="M337.301 155.325C339.315 155.422 341.237 155.664 343.125 156.413C346.544 157.768 349.832 160.359 351.2 163.878C352.094 166.179 351.401 168.661 350.452 170.827C347.92 176.609 343.946 179.321 338.25 181.418C334.611 181.659 330.705 180.621 327.635 178.632C325.631 177.333 324.383 175.375 323.939 173.027C323.13 168.745 323.315 164.32 326.005 160.688C328.755 156.974 333.036 156.058 337.301 155.325Z"/>
	<path fill="white" transform="scale(0.666667 0.666667)" d="M330.005 163.312L330.611 163.169C331.497 163.105 332.31 163.77 332.788 164.466C333.354 165.29 333.699 166.482 333.297 167.438C332.834 168.538 331.953 169.248 330.937 169.79C329.59 169.811 329.113 169.643 328.014 168.857C327.384 167.674 327.29 167.265 327.476 165.938C328.207 164.766 328.863 164.089 330.005 163.312Z"/>
	<defs>
		<linearGradient id="gradient_7" gradientUnits="userSpaceOnUse" x1="603.18231" y1="342.02676" x2="578.62781" y2="344.3804">
			<stop offset="0" stop-color="#48106E"/>
			<stop offset="1" stop-color="#7806BD"/>
		</linearGradient>
	</defs>
	<path fill="url(#gradient_7)" transform="scale(0.666667 0.666667)" d="M581.328 326.05C586.938 325.188 591.476 325.08 596.375 328.552C600.499 331.474 603.218 335.832 603.982 340.829C604.707 345.563 602.9 351.656 600.128 355.487C597.336 359.345 593.115 361.544 588.434 362.121C585.339 362.503 581.747 361.604 578.928 360.365L579.864 359.819C580.452 358.652 580.316 357.412 580.311 356.139L579.248 355.808L584.441 352.694C584.393 351.354 584.258 349.979 584.701 348.692C585.3 346.954 585.077 345.487 585.135 343.688C585.207 341.432 585.903 338.834 585.427 336.618C585.083 335.015 585.14 330.438 585.868 329.002L586.217 329.184L586.753 328.722C585.09 327.121 583.709 326.129 581.328 326.05Z"/>
	<path fill="#6803B2" transform="scale(0.666667 0.666667)" d="M586.753 328.722C589.904 331.437 590.954 335.513 591.21 339.526C591.45 343.297 589.784 347.322 587.262 350.062C586.419 350.978 585.42 351.931 584.441 352.694C584.393 351.354 584.258 349.979 584.701 348.692C585.3 346.954 585.077 345.487 585.135 343.688C585.207 341.432 585.903 338.834 585.427 336.618C585.083 335.015 585.14 330.438 585.868 329.002L586.217 329.184L586.753 328.722Z"/>
	<path fill="white" transform="scale(0.666667 0.666667)" d="M343.797 325.586C344.493 325.849 345.108 326.055 345.74 326.446L327.766 340.207L310.533 354.484C298.679 364.431 286.261 374.732 277.351 387.521C274.493 391.624 271.486 396.134 271.093 401.25C270.85 404.409 270.766 407.052 272.925 409.566C277.427 414.809 287.567 415.303 293.977 415.411C304.413 415.586 315.058 413.803 325.288 411.923C347.107 407.912 368.517 401.84 389.36 394.267L425.562 379.688L427.542 380.013C417.651 386.063 407.176 389.936 396.371 394.005C371.756 403.277 346.109 411.149 320.063 415.072C308.388 416.831 297.049 418.208 285.243 416.761C280.089 416.13 273.132 414.518 269.872 410.105C267.728 407.203 267.048 404.004 267.728 400.5C269.257 392.624 274.634 385.765 279.807 379.885C289.425 368.95 300.547 360.015 311.689 350.704C322.156 341.958 332.484 333.238 343.797 325.586Z"/>
	<defs>
		<linearGradient id="gradient_8" gradientUnits="userSpaceOnUse" x1="454.98865" y1="349.53424" x2="391.69931" y2="343.14075">
			<stop offset="0" stop-color="#4E0388"/>
			<stop offset="1" stop-color="#9500FC"/>
		</linearGradient>
	</defs>
	<path fill="url(#gradient_8)" transform="scale(0.666667 0.666667)" d="M510.398 280.853L510.656 281.524C510.255 281.803 509.88 282.057 509.441 282.276C508.768 282.613 508.224 283.056 507.639 283.523C506.861 284.146 507.536 283.645 506.531 284.156L505.875 284.625L504.176 285.819C503.366 286.425 502.557 286.664 501.75 287.342C501.052 287.928 501.424 287.807 500.625 287.812L500.367 288.082C499.956 288.493 500.194 288.292 499.684 288.562C498.284 289.306 496.881 290.496 495.562 291.375L494.906 291.656C494.519 291.858 494.209 292.137 493.798 292.342C492.737 292.871 491.857 293.674 490.757 294.223C490.201 294.501 489.944 294.836 489.562 295.309L489.184 295.312C487.741 296.144 486.457 297.241 485.062 298.125L484.498 298.406L484.147 298.629C483.528 299.017 483.976 298.751 483.292 299.092C482.221 299.627 480.833 300.619 479.809 301.312L479.283 301.77C478.639 302.309 478.226 302.329 477.561 302.719L476.812 303.375L476.248 303.656L475.688 304.309L475.125 304.312L473.062 305.809L472.5 305.812L472.254 306.076C471.747 306.583 472.122 306.218 471.373 306.656L470.438 307.309L470.059 307.312L469.662 307.65C469.116 308.087 468.622 308.323 468 308.625L466.685 309.258C466.145 309.528 465.838 309.947 465.375 310.309C464.892 310.686 464.393 311.012 463.81 311.189C462.873 311.474 462.559 311.833 461.812 312.375L461.248 312.656L460.79 312.984C460.325 313.309 460.064 313.393 459.561 313.594C459.002 313.817 458.722 314.043 458.25 314.438L458.434 315.188L458.062 315.566L458.623 316.594L458.344 316.969L458.809 317.438L458.25 317.812L458.248 318.281L458.059 318.938C457.869 320.121 458.385 321.072 457.684 322.125C457.684 323.278 457.935 324.935 457.309 325.875C457.309 327.186 457.645 329.309 456.934 330.375C456.934 331.308 457.092 331.825 456.559 332.625C456.559 334.061 456.949 336.727 456.184 337.875C456.184 338.808 456.342 339.325 455.809 340.125C455.809 341.436 456.145 343.559 455.434 344.625C455.434 345.696 455.661 346.721 455.059 347.625C455.059 348.936 455.395 351.059 454.684 352.125C454.684 353.196 454.911 354.221 454.309 355.125C454.309 356.373 454.616 358.227 453.934 359.25C453.934 360.342 454.16 361.723 453.559 362.625C453.559 363.999 453.922 366.392 453.184 367.5C453.184 368.503 453.377 369.273 452.809 370.125C452.809 371.561 453.199 374.227 452.434 375.375C452.434 376.308 452.592 376.825 452.059 377.625C452.059 378.873 452.366 380.727 451.684 381.75C451.686 382.558 451.469 383.223 452.059 383.812L451.688 384.375C452.398 384.138 452.092 384.306 452.625 383.908C454.471 383.985 455.902 384.051 457.688 383.625C458.869 383.343 459.778 383.981 460.875 383.25L461.537 383.221C463.231 383.108 461.371 383.281 462.938 382.875C463.638 382.693 464.071 382.755 464.812 382.5C465.647 382.213 466.483 382.163 467.344 381.844L468.867 381.469C469.469 381.348 469.912 381.097 470.461 380.848C471.123 380.547 470.834 380.651 471.504 380.59C472.275 380.52 472.577 380.183 473.25 379.875L474 379.688C474.826 379.469 475.485 379.105 476.25 378.75L477.188 378.375L478.354 377.854C479.051 377.537 478.652 377.691 479.268 377.537C479.787 377.407 479.94 377.157 480.375 376.875C481.598 376.084 483.004 375.685 484.201 374.83C484.592 374.551 484.395 374.656 484.869 374.537C485.402 374.404 485.565 374.195 486 373.875C486.576 373.451 487.148 373.129 487.775 372.791C488.352 372.48 488.506 372.369 488.812 371.816L489.375 371.812L489.68 371.578L490.67 370.893L493.312 369C495.748 367.435 497.571 364.845 499.969 363.469L502.688 360.75L502.92 361.125C490.175 374.409 471.856 384.345 453.132 384.745C447.47 384.866 441.96 384.642 436.5 382.981C433.469 382.059 430.625 380.784 427.542 380.013L425.562 379.688L425.422 379.231C422.408 377.083 418.898 375.632 415.647 373.875L404.688 367.355L394.875 360.776C392.923 359.357 391.042 357.554 388.865 356.531L388.901 356.346L510.398 280.853Z"/>
	<defs>
		<linearGradient id="gradient_9" gradientUnits="userSpaceOnUse" x1="237.34714" y1="120.60119" x2="200.23135" y2="85.177116">
			<stop offset="0" stop-color="#3BCAD1"/>
			<stop offset="1" stop-color="#6AF5F3"/>
		</linearGradient>
	</defs>
	<path fill="url(#gradient_9)" transform="scale(0.666667 0.666667)" d="M237.59 69.245C244.662 75.6276 250.815 81.8767 251.256 91.9824C251.668 101.426 247.364 111.591 240.977 118.441C232.802 127.207 221.634 132.023 209.673 132.293C200.513 132.5 191.467 128.861 184.898 122.527C180.933 118.704 179.033 114.322 176.648 109.46L176.852 108.776C187.572 98.7913 201.004 91.2785 213.306 83.3874L229.498 73.3967C232.161 71.8769 234.656 70.2029 237.59 69.245Z"/>
	<defs>
		<linearGradient id="gradient_10" gradientUnits="userSpaceOnUse" x1="486.06714" y1="385.78558" x2="560.63593" y2="155.94151">
			<stop offset="0" stop-color="#FDD5FE"/>
			<stop offset="1" stop-color="#FEFFFF"/>
		</linearGradient>
	</defs>
	<path fill="url(#gradient_10)" transform="scale(0.666667 0.666667)" d="M666.097 189.54C666.911 189.869 667.113 189.794 667.599 190.565C667.37 192.832 667.194 195.214 666.409 197.365C663.357 205.731 654.117 212.675 647.369 218.175L638.064 225.4C637.467 225.845 635.385 227.131 635.132 227.701C631.638 229.584 628.229 232.182 624.86 234.342L570.102 269.09C563.744 272.911 557.279 277.314 550.574 280.472C548.849 281.285 546.718 282.223 544.791 282.133L544.528 281.438C546.74 279.058 550.123 277.782 552.954 276.224L561.55 271.094L621.034 233.646C626.987 229.542 633.559 225.401 638.946 220.577L639.461 220.109L638.648 219.561L639.377 218.719C639.829 217.824 639.603 218.04 640.502 217.502C640.795 216.849 641.007 216.4 641.522 215.883L641.906 215.531C641.772 214.551 642.183 214.107 642.739 213.311C643.142 212.733 643.013 212.733 642.941 212.062L643.688 211.875C643.693 210.69 644.425 210.007 645.236 209.191L645.562 208.875C645.44 208.252 645.263 207.9 644.908 207.375L644.252 207.373L644.066 206.625L643.502 206.248C642.709 204.583 642.328 204.217 642.002 202.406C641.845 201.536 640.595 201.438 639.938 201L639.938 200.441L644.812 200.441C644.28 199.508 643.273 199.009 642.375 198.467L641.625 198.559L640.594 197.998C639.814 197.628 639.413 197.305 638.816 196.688L639.002 196.127L639.562 195.941L638.438 195.375C638.979 194.9 639.577 194.55 640.185 194.168C626.054 195.224 611.889 198.005 598.059 201C595.532 201.547 591.561 201.992 589.302 203.139L589.083 203.681L588.373 204.373L588.184 205.312L587.438 205.684L586.875 205.125L586.873 205.873L585.938 206.059L585.375 205.5L585.184 205.688L585.188 206.441C587.206 206.441 587.941 206.176 589.312 207.822C589.618 208.189 589.655 208.3 589.847 208.674L589.152 209.113C590.45 210.147 591.562 210.981 592.42 212.438C592.807 216.872 590.309 220.212 587.591 223.487C583.808 228.044 579.176 231.958 574.654 235.757C563.745 244.919 551.894 252.836 540.122 260.827L523.125 272.617C518.978 275.385 514.304 277.774 510.398 280.853L388.901 356.346C387.316 353.892 385.334 351.814 383.727 349.381C382.879 348.098 382.405 346.622 381.577 345.381C381.178 344.782 380.882 344.238 380.564 343.596C381.713 341.842 384.294 340.659 386.045 339.518L410.062 325.249L465.393 292.687C465.812 292.647 467.042 291.785 467.461 291.546L475.549 286.721L517.429 261.615L516.947 260.419C516.044 258.653 514.144 257.034 512.749 255.637C508.653 251.535 504.223 247.813 499.414 244.571C497.433 243.235 495.347 241.677 493.05 240.95L491.254 239.602C490.308 239.58 489.551 239.134 488.694 238.758C502.186 228.88 519.015 222.655 534.645 217.036C551.382 211.019 568.109 205.35 585.375 201.011C606.442 195.716 628.441 192.302 650.045 190.217L666.097 189.54ZM528.993 222.072C519.315 225.2 509.799 229.407 500.805 234.136L491.254 239.602L493.05 240.95C495.347 241.677 497.433 243.235 499.414 244.571C504.223 247.813 508.653 251.535 512.749 255.637C514.144 257.034 516.044 258.653 516.947 260.419L517.429 261.615L534.949 251.091L551.245 241.381C553.886 239.735 556.837 238.167 559.192 236.138C564.854 232.994 571.095 228.267 575.113 223.15C575.491 222.547 575.742 221.89 576.025 221.239C576.52 219.959 576.527 219.226 576.341 217.875C574.554 214.986 571.769 213.633 568.553 212.863C559.482 210.691 548.704 215.141 540.233 218.09C536.491 219.393 532.639 220.527 528.993 222.072ZM640.185 194.168C639.577 194.55 638.979 194.9 638.438 195.375L639.562 195.941L639.002 196.127L638.816 196.688C639.413 197.305 639.814 197.628 640.594 197.998L641.625 198.559L642.375 198.467C643.273 199.009 644.28 199.508 644.812 200.441L639.938 200.441L639.938 201C640.595 201.438 641.845 201.536 642.002 202.406C642.328 204.217 642.709 204.583 643.502 206.248L644.066 206.625L644.252 207.373L644.908 207.375C645.263 207.9 645.44 208.252 645.562 208.875L645.236 209.191C644.425 210.007 643.693 210.69 643.688 211.875L642.941 212.062C643.013 212.733 643.142 212.733 642.739 213.311C642.183 214.107 641.772 214.551 641.906 215.531L641.522 215.883C641.007 216.4 640.795 216.849 640.502 217.502C639.603 218.04 639.829 217.824 639.377 218.719L638.648 219.561L639.461 220.109L642.188 218.072C648.332 213.219 660.126 203.871 661.073 195.562C660.706 194.884 660.576 194.636 659.914 194.21C658.154 193.078 655.941 193.257 653.933 193.311C649.474 193.429 644.56 193.358 640.185 194.168ZM589.152 209.113L589.847 208.674C589.655 208.3 589.618 208.189 589.312 207.822C587.941 206.176 587.206 206.441 585.188 206.441L585.184 205.688L585.375 205.5L585.938 206.059L586.873 205.873L586.875 205.125L587.438 205.684L588.184 205.312L588.373 204.373L589.083 203.681L589.302 203.139C584.783 203.854 580.493 205.298 576.106 206.551C574.546 206.996 572.029 207.403 570.77 208.371C572.661 208.385 574.425 207.803 576.292 207.561C580.818 206.974 584.86 207.718 589.152 209.113Z"/>
	<path transform="scale(0.666667 0.666667)" d="M589.152 209.113C584.86 207.718 580.818 206.974 576.292 207.561C574.425 207.803 572.661 208.385 570.77 208.371C572.029 207.403 574.546 206.996 576.106 206.551C580.493 205.298 584.783 203.854 589.302 203.139L589.083 203.681L588.373 204.373L588.184 205.312L587.438 205.684L586.875 205.125L586.873 205.873L585.938 206.059L585.375 205.5L585.184 205.688L585.188 206.441C587.206 206.441 587.941 206.176 589.312 207.822C589.618 208.189 589.655 208.3 589.847 208.674L589.152 209.113Z"/>
	<path transform="scale(0.666667 0.666667)" d="M640.185 194.168C644.56 193.358 649.474 193.429 653.933 193.311C655.941 193.257 658.154 193.078 659.914 194.21C660.576 194.636 660.706 194.884 661.073 195.562C660.126 203.871 648.332 213.219 642.188 218.072L639.461 220.109L638.648 219.561L639.377 218.719C639.829 217.824 639.603 218.04 640.502 217.502C640.795 216.849 641.007 216.4 641.522 215.883L641.906 215.531C641.772 214.551 642.183 214.107 642.739 213.311C643.142 212.733 643.013 212.733 642.941 212.062L643.688 211.875C643.693 210.69 644.425 210.007 645.236 209.191L645.562 208.875C645.44 208.252 645.263 207.9 644.908 207.375L644.252 207.373L644.066 206.625L643.502 206.248C642.709 204.583 642.328 204.217 642.002 202.406C641.845 201.536 640.595 201.438 639.938 201L639.938 200.441L644.812 200.441C644.28 199.508 643.273 199.009 642.375 198.467L641.625 198.559L640.594 197.998C639.814 197.628 639.413 197.305 638.816 196.688L639.002 196.127L639.562 195.941L638.438 195.375C638.979 194.9 639.577 194.55 640.185 194.168Z"/>
	<defs>
		<linearGradient id="gradient_11" gradientUnits="userSpaceOnUse" x1="558.74756" y1="204.92378" x2="513.27203" y2="256.11945">
			<stop offset="0" stop-color="black" stop-opacity="0.88627452"/>
			<stop offset="1" stop-color="black" stop-opacity="0.96078432"/>
		</linearGradient>
	</defs>
	<path fill="url(#gradient_11)" transform="scale(0.666667 0.666667)" d="M528.993 222.072C532.639 220.527 536.491 219.393 540.233 218.09C548.704 215.141 559.482 210.691 568.553 212.863C571.769 213.633 574.554 214.986 576.341 217.875C576.527 219.226 576.52 219.959 576.025 221.239C575.742 221.89 575.491 222.547 575.113 223.15C571.095 228.267 564.854 232.994 559.192 236.138C556.837 238.167 553.886 239.735 551.245 241.381L534.949 251.091L517.429 261.615L516.947 260.419C516.044 258.653 514.144 257.034 512.749 255.637C508.653 251.535 504.223 247.813 499.414 244.571C497.433 243.235 495.347 241.677 493.05 240.95L491.254 239.602L500.805 234.136C509.799 229.407 519.315 225.2 528.993 222.072ZM528.993 222.072C534.79 222.483 540.255 217.668 546.188 217.684L545.906 218.156C545.086 218.191 544.486 218.233 543.75 218.625C543.03 219.009 542.673 219.279 541.84 219.398C540.893 219.534 541.512 219.343 540.562 219.75C540.897 220.447 540.661 220.125 541.312 220.684C541.829 220.168 541.93 220.285 542.625 220.209C543.289 219.687 543.848 219.213 544.688 219.015C545.538 218.815 545.853 218.833 546.583 218.288C547.181 217.84 546.961 217.878 547.616 217.743C548.076 217.647 548.367 217.567 548.797 217.371L548.25 217.125L548.139 216.575C548.491 216.311 548.803 216.089 549.218 215.927L549.75 215.738C550.964 215.287 551.692 214.9 553.031 215.156L552.75 215.812L550.689 216.656L549.938 216.75C550.308 217.471 550.561 217.361 551.297 217.617L555.736 214.763C557.151 214.592 558.095 214.746 559.449 215.194C561.106 215.742 564.206 213.955 566.414 214.41C567.497 214.633 568.521 214.612 569.625 214.604L570.155 215.062C570.872 215.152 571.647 215.166 572.252 215.588C572.781 215.957 572.436 215.814 573.008 216.004C573.683 216.228 574.365 216.385 574.887 216.912C575.895 217.929 575.973 219.893 576.025 221.239C576.52 219.959 576.527 219.226 576.341 217.875C574.554 214.986 571.769 213.633 568.553 212.863C559.482 210.691 548.704 215.141 540.233 218.09C536.491 219.393 532.639 220.527 528.993 222.072ZM559.192 236.138C564.854 232.994 571.095 228.267 575.113 223.15C575.111 222.102 575.079 221.079 575.24 220.041C575.342 219.387 575.152 219.229 575.059 218.625L575.059 217.688C574.087 216.911 574.064 216.941 572.812 216.941C572.462 217.719 572.194 218.335 572.066 219.188C572.452 219.929 572.856 220.623 573.023 221.451C573.86 220.04 572.191 218.858 573.938 218.25C574.137 219.036 574.117 219.602 574.031 220.406L573.566 220.688L574.141 221.116L574.312 221.441C573.932 222.202 574.233 221.829 573.75 222.191L572.816 222.938L572.906 223.781L572.434 223.688L571.594 223.594C570.698 224.417 570.195 225.051 569.623 226.123C569.147 227.015 565.27 229.432 564.16 229.809C563.311 230.096 563.06 230.347 562.477 231C563.518 231.092 564.405 230.315 565.406 229.969L565.312 230.625L563.062 232.316L562.594 232.502C561.808 232.976 561.541 233.583 560.627 234.002C559.728 234.414 559.46 235.272 559.192 236.138ZM497.044 238.312C496.29 238.609 495.481 238.839 495.094 239.625C494.948 239.922 494.89 240.245 494.816 240.562C495.802 242.213 497.782 242.46 499.312 243.396L503.438 245.913L504.045 246.061C504.513 245.31 504.554 244.89 504.685 244.031L503.607 242.886C502.6 241.84 502.077 240.767 501.559 239.438C501.321 238.828 500.908 238.454 500.438 238.023C499.302 238.079 498.157 238.073 497.044 238.312Z"/>
	<path transform="scale(0.666667 0.666667)" d="M497.044 238.312C498.157 238.073 499.302 238.079 500.438 238.023C500.908 238.454 501.321 238.828 501.559 239.438C502.077 240.767 502.6 241.84 503.607 242.886L504.685 244.031C504.554 244.89 504.513 245.31 504.045 246.061L503.438 245.913L499.312 243.396C497.782 242.46 495.802 242.213 494.816 240.562C494.89 240.245 494.948 239.922 495.094 239.625C495.481 238.839 496.29 238.609 497.044 238.312Z"/>
	<defs>
		<linearGradient id="gradient_12" gradientUnits="userSpaceOnUse" x1="568.67273" y1="228.43999" x2="565.76428" y2="227.94554">
			<stop offset="0" stop-color="black" stop-opacity="0.90588236"/>
			<stop offset="1" stop-color="black" stop-opacity="0.95686275"/>
		</linearGradient>
	</defs>
	<path fill="url(#gradient_12)" transform="scale(0.666667 0.666667)" d="M559.192 236.138C559.46 235.272 559.728 234.414 560.627 234.002C561.541 233.583 561.808 232.976 562.594 232.502L563.062 232.316L565.312 230.625L565.406 229.969C564.405 230.315 563.518 231.092 562.477 231C563.06 230.347 563.311 230.096 564.16 229.809C565.27 229.432 569.147 227.015 569.623 226.123C570.195 225.051 570.698 224.417 571.594 223.594L572.434 223.688L572.906 223.781L572.816 222.938L573.75 222.191C574.233 221.829 573.932 222.202 574.312 221.441L574.141 221.116L573.566 220.688L574.031 220.406C574.117 219.602 574.137 219.036 573.938 218.25C572.191 218.858 573.86 220.04 573.023 221.451C572.856 220.623 572.452 219.929 572.066 219.188C572.194 218.335 572.462 217.719 572.812 216.941C574.064 216.941 574.087 216.911 575.059 217.688L575.059 218.625C575.152 219.229 575.342 219.387 575.24 220.041C575.079 221.079 575.111 222.102 575.113 223.15C571.095 228.267 564.854 232.994 559.192 236.138Z"/>
	<path transform="scale(0.666667 0.666667)" d="M528.993 222.072C532.639 220.527 536.491 219.393 540.233 218.09C548.704 215.141 559.482 210.691 568.553 212.863C571.769 213.633 574.554 214.986 576.341 217.875C576.527 219.226 576.52 219.959 576.025 221.239C575.973 219.893 575.895 217.929 574.887 216.912C574.365 216.385 573.683 216.228 573.008 216.004C572.436 215.814 572.781 215.957 572.252 215.588C571.647 215.166 570.872 215.152 570.155 215.062L569.625 214.604C568.521 214.612 567.497 214.633 566.414 214.41C564.206 213.955 561.106 215.742 559.449 215.194C558.095 214.746 557.151 214.592 555.736 214.763L551.297 217.617C550.561 217.361 550.308 217.471 549.938 216.75L550.689 216.656L552.75 215.812L553.031 215.156C551.692 214.9 550.964 215.287 549.75 215.738L549.218 215.927C548.803 216.089 548.491 216.311 548.139 216.575L548.25 217.125L548.797 217.371C548.367 217.567 548.076 217.647 547.616 217.743C546.961 217.878 547.181 217.84 546.583 218.288C545.853 218.833 545.538 218.815 544.688 219.015C543.848 219.213 543.289 219.687 542.625 220.209C541.93 220.285 541.829 220.168 541.312 220.684C540.661 220.125 540.897 220.447 540.562 219.75C541.512 219.343 540.893 219.534 541.84 219.398C542.673 219.279 543.03 219.009 543.75 218.625C544.486 218.233 545.086 218.191 545.906 218.156L546.188 217.684C540.255 217.668 534.79 222.483 528.993 222.072Z"/>
	<defs>
		<linearGradient id="gradient_13" gradientUnits="userSpaceOnUse" x1="449.38797" y1="300.12338" x2="392.93356" y2="263.70804">
			<stop offset="0" stop-color="#6F04C1"/>
			<stop offset="1" stop-color="#BC0BFE"/>
		</linearGradient>
	</defs>
	<path fill="url(#gradient_13)" transform="scale(0.666667 0.666667)" d="M375.29 305.475C375.191 300.201 377.551 293.935 379.238 288.978C385.924 269.333 399.308 251.509 418.239 242.341C432.822 235.279 449.073 233.271 465.098 234.341C473.06 234.872 481.145 236.113 488.694 238.758C489.551 239.134 490.308 239.58 491.254 239.602L493.05 240.95C495.347 241.677 497.433 243.235 499.414 244.571C504.223 247.813 508.653 251.535 512.749 255.637C514.144 257.034 516.044 258.653 516.947 260.419L517.429 261.615L475.549 286.721L467.461 291.546C467.042 291.785 465.812 292.647 465.393 292.687L410.062 325.249L386.045 339.518C384.294 340.659 381.713 341.842 380.564 343.596L379.909 343.404C380.206 343.141 380.46 342.855 380.727 342.562C377.771 334.891 376.746 327.863 375.287 319.882L374.954 317.27C376.085 313.984 375.406 308.985 375.29 305.475Z"/>
	<path fill="#6803B2" transform="scale(0.666667 0.666667)" d="M465.393 292.687C464.816 292.77 464.351 292.82 463.765 292.755L463.312 292.691C462.883 293.332 463.096 293.173 462.51 293.525L462 293.812L460.969 294.469C459.75 295.154 458.37 296.307 457.125 296.812C456.325 297.137 455.972 297.141 455.297 297.739C454.957 298.041 454.547 298.496 454.125 298.688C453.57 298.94 453.4 298.839 452.801 299.238C452.087 299.714 451.476 299.979 450.75 300.375L449.156 301.406C448.128 301.131 447.531 301.277 446.54 301.548L446.181 301.65L445.818 300.773C445.849 300.192 445.934 299.931 446.208 299.402L446.72 298.359C447.013 297.651 447.265 297.086 447.744 296.48C448.246 295.847 448.544 295.215 448.982 294.549C452.399 289.351 455.457 283.815 459.109 278.766L465.987 268.177L468.616 264.108C469.789 262.49 470.612 260.485 471.891 259.006C473.879 256.707 475.328 253.79 476.997 251.25C478.316 249.243 479.964 247.274 481.125 245.177C481.933 243.715 483.817 242.229 484.354 240.849L484.435 240.54C485.394 239.7 486.112 239.293 487.312 238.875C488.351 239.556 489.232 240.05 490.406 240.469L491.822 241.01C492.47 241.297 492.416 241.172 493.05 240.95C495.347 241.677 497.433 243.235 499.414 244.571C504.223 247.813 508.653 251.535 512.749 255.637C514.144 257.034 516.044 258.653 516.947 260.419L517.429 261.615L475.549 286.721L467.461 291.546C467.042 291.785 465.812 292.647 465.393 292.687Z"/>
	<path transform="scale(0.666667 0.666667)" d="M374.612 304.883L375.29 305.475C375.406 308.985 376.085 313.984 374.954 317.27L375.287 319.882C376.746 327.863 377.771 334.891 380.727 342.562C380.46 342.855 380.206 343.141 379.909 343.404L380.564 343.596C380.882 344.238 381.178 344.782 381.577 345.381C382.405 346.622 382.879 348.098 383.727 349.381C385.334 351.814 387.316 353.892 388.901 356.346L388.865 356.531C391.042 357.554 392.923 359.357 394.875 360.776L404.688 367.355L415.647 373.875C418.898 375.632 422.408 377.083 425.422 379.231L425.562 379.688L389.36 394.267C368.517 401.84 347.107 407.912 325.288 411.923C315.058 413.803 304.413 415.586 293.977 415.411C287.567 415.303 277.427 414.809 272.925 409.566C270.766 407.052 270.85 404.409 271.093 401.25C271.486 396.134 274.493 391.624 277.351 387.521C286.261 374.732 298.679 364.431 310.533 354.484L327.766 340.207L345.74 326.446L353.826 320.645C360.587 315.169 368.315 310.925 374.612 304.883Z"/>
	<path fill="white" transform="scale(0.666667 0.666667)" d="M374.954 317.27L375.287 319.882L334.545 356.084C335.06 354.38 335.541 352.702 336.51 351.187C338.429 348.187 341.211 345.55 343.677 342.992C352.885 333.44 363.577 324.112 374.954 317.27Z"/>
	<path fill="white" transform="scale(0.666667 0.666667)" d="M379.909 343.404L380.564 343.596C380.882 344.238 381.178 344.782 381.577 345.381C382.405 346.622 382.879 348.098 383.727 349.381C385.334 351.814 387.316 353.892 388.901 356.346L388.865 356.531C377.745 363.835 366.736 371.913 353.973 376.144C350.718 377.224 346.671 378.339 343.235 377.783C341.309 377.471 339.395 376.675 338.372 374.901C337.817 373.938 337.867 373.005 338.269 372C339.42 369.122 342.783 366.607 345.109 364.699C355.418 356.246 367.723 348.842 379.909 343.404Z"/>
	<defs>
		<linearGradient id="gradient_14" gradientUnits="userSpaceOnUse" x1="625.65558" y1="202.56509" x2="704.74866" y2="521.43768">
			<stop offset="0" stop-color="#010003" stop-opacity="0.95686275"/>
			<stop offset="1" stop-color="black"/>
		</linearGradient>
	</defs>
	<path fill="url(#gradient_14)" transform="scale(0.666667 0.666667)" d="M667.599 190.565C671.481 191.985 675.296 200.061 677.232 203.531L688.998 226.076C697.55 244.536 704.111 263.886 708.767 283.688C712.421 299.229 714.315 314.66 715.934 330.501C721.817 388.045 718.875 448.195 698.608 502.875L689.213 527.062C678.106 519.548 664.418 514.183 652.083 509.016L637.164 503.089L637.875 501.938C638.427 501.938 638.162 502.026 638.625 501.562L638.066 500.812C638.286 500.231 638.463 499.842 638.812 499.316C640.396 499.353 641.242 499.091 642.574 498.203C644.979 496.6 645.446 495.126 646.316 492.562C646.755 491.27 646.722 490.374 646.691 489C646.123 488.148 646.316 487.378 646.316 486.375C645.748 485.523 645.941 484.753 645.941 483.75C645.468 483.041 645.566 483.047 645.566 482.25C644.573 480.761 645.191 475.271 645.191 473.25L645.562 472.875L645.566 471.188C645.886 469.859 645.973 469.038 645.941 467.625C645.468 466.916 645.566 466.922 645.566 466.125L645.002 465.373L644.816 464.812C644.041 464.151 643.293 463.586 642.27 463.38C641.586 463.242 640.974 463.16 640.303 462.936L639.752 462.748C639.356 462.643 639.38 462.756 639 462.559C638.248 462.168 637.886 461.661 637.691 460.875L638.064 460.219L637.877 459.819L638.768 459.763C637.8 458.929 636.923 458.018 636.863 456.666C636.83 455.921 637.738 455.39 638.258 454.902C637.69 454.791 637.425 454.614 636.941 454.312L636.941 452.625C637.685 451.732 637.693 451.538 638.812 451.316L639.752 450.377C640.602 449.845 641.215 448.964 642.002 448.502C643.246 447.772 644.323 446.708 645.042 445.39L645.377 444.752C645.748 444.059 645.89 443.637 645.922 442.857L645.941 442.125C646.564 441.188 646.315 439.524 646.316 438.375C647.134 437.145 646.69 433.252 646.691 431.625L647.062 431.066L647.066 429.188C647.59 426.874 647.466 424.648 647.441 422.25C648.005 421.401 647.814 420.623 647.816 419.625C648.581 418.853 648.19 415.238 648.191 414C648.72 413.204 648.564 412.678 648.566 411.75C649.367 410.549 648.696 408.839 648.941 407.438C649.194 405.992 649.346 405.01 649.316 403.5C650.146 402.251 649.473 400.156 649.772 398.647L649.877 398.252L650.066 397.5C650.787 396.125 650.44 393.855 650.441 392.25C651.142 391.195 650.591 390.241 650.816 389.062C651.137 387.383 651.221 386.135 651.191 384.375L651.562 384C651.434 383.102 651.512 382.276 651.566 381.375C652.245 380.354 651.94 378.494 651.941 377.25C652.54 376.35 652.315 375.317 652.316 374.25C653.29 372.789 652.32 369.906 653.066 368.062C653.599 366.746 653.469 365.523 653.441 364.125C653.97 363.329 653.814 362.803 653.816 361.875L654.188 361.316C654.159 360.254 653.981 359.066 654.566 358.125C655.15 357.186 654.94 356.223 654.941 355.125C655.409 354.421 655.313 354.417 655.316 353.625C655.845 352.829 655.689 352.303 655.691 351.375C656.159 350.671 656.063 350.667 656.066 349.875C656.595 349.079 656.439 348.553 656.441 347.625C656.909 346.921 656.813 346.917 656.816 346.125L657.188 345.566C657.177 345.009 657.163 344.496 657.272 343.946L657.377 343.502L657.566 342.75C658.035 341.855 657.939 341.512 657.941 340.5L658.312 339.941L658.316 338.812C658.487 337.699 658.663 336.796 658.691 335.625C659.159 334.921 659.063 334.917 659.066 334.125C659.595 333.329 659.439 332.803 659.441 331.875C660.04 330.975 659.815 329.942 659.816 328.875C660.495 327.854 660.19 325.994 660.191 324.75C660.952 323.604 660.565 320.933 660.566 319.5C661.56 318.004 660.941 305.709 660.941 303C661.547 302.088 661.308 300.97 661.306 299.886C661.301 297.551 661.105 295.031 661.363 292.717C661.477 291.701 661.476 290.906 661.363 289.892L661.316 289.5C661.845 288.704 661.689 288.178 661.691 287.25C660.927 286.103 661.316 282.398 661.316 280.875C660.495 279.643 660.941 275.755 660.941 274.125C660.218 273.04 660.572 270.278 660.562 268.875C659.733 267.618 659.992 263.939 660.094 262.406C660.162 261.39 660.306 262.107 660 261.184L659.441 260.812L659.906 260.531C659.027 259.645 659.441 256.701 659.441 255.375L659.906 254.906L659.627 254.531L659.906 254.156L659.441 253.688L659.418 234.42C659.418 232.686 658.953 229.388 659.816 228L660.188 227.441C660.214 226.254 660.464 224.511 659.816 223.5C659.099 222.382 658.147 222.566 656.942 222.269C656.419 222.14 656.238 222.403 655.781 222.656L655.125 222.562C654.039 223.14 653.33 223.215 652.125 223.309L651.562 223.684C650.904 223.466 650.378 223.537 649.718 223.358L649.219 223.219L648.562 223.5C647.556 223.73 647.162 223.86 646.242 224.473L645.75 224.812C645.047 224.81 645.414 224.753 644.606 225.08L643.873 225.373L642.938 225.559L641.812 226.125C641.03 226.375 640.827 226.18 640.055 226.695C639.276 227.214 638.797 227.059 637.875 227.059C637.396 227.476 637.062 227.797 636.439 227.986L636 228.092L635.541 228.279L635.132 227.701C635.385 227.131 637.467 225.845 638.064 225.4L647.369 218.175C654.117 212.675 663.357 205.731 666.409 197.365C667.194 195.214 667.37 192.832 667.599 190.565Z"/>
	<path fill="white" transform="scale(0.666667 0.666667)" d="M675.499 490.312C676.8 490.488 676.869 490.492 677.812 491.397C677.673 492.676 677.425 492.918 676.688 493.928L675.562 494.332C675.269 494.099 675.123 494.007 674.874 493.688C674.203 492.829 674.229 492.09 674.274 491.062L675.499 490.312Z"/>
	<path fill="white" transform="scale(0.666667 0.666667)" d="M638.258 454.902C639.593 455.285 639.892 455.336 640.891 456.375C640.779 457.891 639.836 458.775 638.768 459.763C637.8 458.929 636.923 458.018 636.863 456.666C636.83 455.921 637.738 455.39 638.258 454.902Z"/>
</svg>
