<?xml version="1.0" encoding="utf-8" ?>
<svg xmlns="http://www.w3.org/2000/svg" xmlns:xlink="http://www.w3.org/1999/xlink" width="512" height="512">
	<path transform="scale(0.666667 0.666667)" d="M0 0.75L0.421875 0.046875L210.061 -0.0032427L616.357 -0.00152501L739.733 -0.000303033L761.626 -6.26381e-05C762.99 -4.74909e-05 766.159 -0.436278 767.25 0C767.46 0.0841115 767.633 0.242187 767.824 0.363281L768 0.75L768 299.625L768 471L768 768L-0 768L0 0.75Z"/>
	<path fill="white" transform="scale(0.666667 0.666667)" d="M250.149 164.438L251.036 164.364C252.016 165.134 252.123 165.116 252.397 166.312L251.437 167.483L250.125 167.663L249.275 166.875C249.341 165.606 249.407 165.474 250.149 164.438Z"/>
	<path fill="white" transform="scale(0.666667 0.666667)" d="M296.644 71.4375L296.929 71.3611C298.261 71.1839 298.366 71.2958 299.438 72.0387C299.571 73.0821 299.284 73.0831 298.688 73.8952C298.286 74.1183 297.792 74.2694 297.363 74.4375L296.448 73.6875C296.16 72.5506 296.182 72.5195 296.644 71.4375Z"/>
	<path fill="#F4E2F3" transform="scale(0.666667 0.666667)" d="M372.261 458.438C373.748 458.234 373.664 458.226 374.893 459.091L375.005 460.312L374.062 461.367L373.289 461.586C372.157 460.785 372.151 460.699 371.707 459.375L372.261 458.438Z"/>
	<path fill="white" transform="scale(0.666667 0.666667)" d="M265.819 248.438L266.943 248.382C268.009 249.124 268.07 249.068 268.386 250.312L267.289 251.438C266.003 251.498 266.017 251.462 264.979 250.688L264.865 249.562L265.819 248.438Z"/>
	<path fill="white" transform="scale(0.666667 0.666667)" d="M247.503 118.312L248.11 118.136C249.017 118.056 249.462 118.693 250.047 119.25C250.169 120.592 249.968 120.631 249.22 121.688L248.062 121.763C247.562 121.212 247.292 120.806 247.082 120.098C246.802 119.15 247.058 119.138 247.503 118.312Z"/>
	<path fill="white" transform="scale(0.666667 0.666667)" d="M300.996 339.188L302.625 339.02C303.461 339.653 303.638 339.71 303.967 340.688L303.188 341.818C302.595 342.234 302.214 342.295 301.5 342.368L300.642 341.654C300.416 340.371 300.394 340.336 300.996 339.188Z"/>
	<path fill="white" transform="scale(0.666667 0.666667)" d="M429.881 146.812L431.062 146.597C431.952 147.302 432.179 147.467 432.615 148.5L431.812 149.908C431.089 150.349 431.093 150.287 430.312 150.322L429.194 149.062C429.02 147.778 429.096 147.865 429.881 146.812Z"/>
	<path fill="white" transform="scale(0.666667 0.666667)" d="M568.272 120.938L568.677 120.958C569.698 121.296 569.908 121.752 570.378 122.625C570.033 123.719 569.95 123.81 569.062 124.542C568.764 124.55 568.441 124.579 568.153 124.475C567.14 124.107 566.929 123.706 566.506 122.812C566.991 121.683 567.278 121.599 568.272 120.938Z"/>
	<path fill="white" transform="scale(0.666667 0.666667)" d="M355.259 170.812C356.572 170.762 356.569 170.775 357.624 171.562C357.756 173.085 357.611 173.04 356.724 174.188L356.04 174.317C355.393 174.346 354.883 174.046 354.424 173.633C353.827 173.096 354.033 172.691 354.013 171.938L355.259 170.812Z"/>
	<path fill="white" transform="scale(0.666667 0.666667)" d="M273.856 314.062C275.145 314.353 275.2 314.38 276.069 315.375C275.882 316.879 275.803 316.77 274.688 317.66C273.51 317.561 273.392 317.424 272.449 316.688C272.167 315.622 272.148 315.57 272.55 314.549L273.856 314.062Z"/>
	<path fill="white" transform="scale(0.666667 0.666667)" d="M283.272 102.188C284.034 101.995 284.362 102.062 285.121 102.188C286.091 102.916 286.205 102.906 286.509 104.062L285.562 105.372L284.947 105.656C283.735 105.907 283.317 105.225 282.562 104.492C282.389 103.16 282.445 103.265 283.272 102.188Z"/>
	<path fill="white" transform="scale(0.666667 0.666667)" d="M198.9 113.812L199.335 113.783C200.592 113.974 200.77 114.345 201.451 115.312C201.133 116.445 200.931 116.59 200.062 117.409C198.882 117.68 198.968 117.686 197.931 117.057C197.503 115.945 197.498 115.742 197.686 114.562L198.9 113.812Z"/>
	<path fill="white" transform="scale(0.666667 0.666667)" d="M605.914 158.437L607.127 158.274C608.1 158.937 608.372 158.983 608.781 160.125C608.217 161.403 608.153 161.467 606.956 162.188C605.588 161.824 605.513 161.773 604.603 160.688C604.88 159.522 605.089 159.328 605.914 158.437Z"/>
	<path fill="white" transform="scale(0.666667 0.666667)" d="M306.776 72.9375C307.247 72.8169 307.768 72.7753 308.25 72.7057C309.14 73.1838 309.417 73.5696 309.921 74.4375C309.803 75.6853 309.69 75.6936 308.812 76.6133L307.5 76.9537C306.499 76.4691 306.158 76.1261 305.566 75.1875C305.716 73.8924 305.908 73.8422 306.776 72.9375Z"/>
	<path fill="white" transform="scale(0.666667 0.666667)" d="M243.42 91.6875C244.051 91.4512 244.401 91.4374 245.062 91.4226C246.002 91.9141 246.357 92.3008 246.938 93.1837C246.798 94.3136 246.651 94.5116 245.968 95.4375C245.634 95.6316 245.232 95.7679 244.875 95.9185C243.675 95.3515 243.296 95.0722 242.608 93.9375C242.598 92.7263 242.697 92.6779 243.42 91.6875Z"/>
	<path fill="#FFFFED" transform="scale(0.666667 0.666667)" d="M440.279 67.3125C440.764 67.1947 441.251 67.2249 441.748 67.2167C442.766 67.9965 442.966 68.1349 443.473 69.375C443.201 70.7506 443.049 70.8558 442.115 71.8125L440.625 72.013C439.557 71.3689 439.334 71.0266 438.849 69.9375C439.021 68.6616 439.386 68.2187 440.279 67.3125Z"/>
	<path fill="white" transform="scale(0.666667 0.666667)" d="M243.477 180.938C244.267 180.623 244.439 180.65 245.25 180.744C246.228 181.405 246.604 181.656 247.033 182.812C246.843 183.924 246.513 184.317 245.812 185.15C245.295 185.354 244.86 185.414 244.312 185.494C243.235 184.925 242.847 184.686 242.25 183.562C242.492 182.201 242.653 181.969 243.477 180.938Z"/>
	<path fill="white" transform="scale(0.666667 0.666667)" d="M370.675 138.938C371.472 138.67 372.014 138.836 372.818 139.007C373.745 139.928 373.898 140.124 374.251 141.375C373.963 142.642 373.907 142.624 372.879 143.438C371.907 143.781 371.71 143.759 370.688 143.573C369.897 142.798 369.288 142.435 369.315 141.188C369.338 140.146 369.945 139.564 370.675 138.938Z"/>
	<path fill="white" transform="scale(0.666667 0.666667)" d="M419.689 156.938C420.35 156.78 421.011 156.808 421.688 156.796C422.835 157.446 423.106 157.818 423.691 159C423.556 160.173 423.113 160.617 422.348 161.438C421.392 161.862 421.057 162.043 420 161.63C419.182 161.311 418.552 160.396 418.393 159.562C418.148 158.276 418.891 157.726 419.689 156.938Z"/>
	<path fill="white" transform="scale(0.666667 0.666667)" d="M183.883 245.062C184.916 244.711 185.34 244.756 186.382 245.062C187.268 245.821 187.687 246.156 188.044 247.312C187.822 248.649 187.505 249.142 186.562 250.103C185.334 250.504 185.139 250.39 183.938 250.07C182.931 249.033 182.868 248.833 182.555 247.5C182.828 246.328 182.945 245.9 183.883 245.062Z"/>
	<path fill="white" transform="scale(0.666667 0.666667)" d="M400.658 469.312C401.542 469.035 402.087 469.369 402.912 469.688C404.01 470.942 404.131 471.039 404.257 472.688C403.765 473.836 403.189 474.202 402.188 474.85C401.149 475.014 400.635 475.029 399.771 474.337C398.92 473.656 398.818 472.952 398.611 471.938C399.188 470.511 399.442 470.275 400.658 469.312Z"/>
	<path fill="#FFFFED" transform="scale(0.666667 0.666667)" d="M531.043 153.562C531.997 153.354 532.698 153.25 533.625 153.656C534.639 154.099 535.051 155.028 535.378 156C535.05 157.431 534.83 157.55 533.812 158.53L532.312 158.975C531.709 158.857 531.166 158.782 530.664 158.396C529.91 157.816 529.527 157.166 529.56 156.188C529.602 154.935 530.197 154.372 531.043 153.562Z"/>
	<path fill="white" transform="scale(0.666667 0.666667)" d="M268.839 374.438C269.958 374.202 270.406 374.09 271.5 374.569C272.379 375.402 272.612 375.912 272.995 377.063C272.717 378.634 272.377 378.823 271.312 379.95C270.093 380.363 269.762 380.253 268.629 379.746C267.931 378.817 267.216 378.14 267.352 376.875C267.479 375.689 268.027 375.197 268.839 374.438Z"/>
	<path fill="white" transform="scale(0.666667 0.666667)" d="M341.178 98.4375C342.617 98.3073 343.026 98.2181 344.387 98.8125C345.106 99.6656 345.549 100.458 345.391 101.625C345.203 103.019 344.759 103.387 343.688 104.219L343.031 104.372C342.201 104.476 341.343 104.24 340.712 103.688C339.892 102.969 339.507 101.759 339.61 100.688C339.716 99.5726 340.386 99.1093 341.178 98.4375Z"/>
	<path fill="white" transform="scale(0.666667 0.666667)" d="M327.546 222.562L328.175 222.327C329.126 222.138 330.171 222.283 330.92 222.938C331.764 223.675 332.132 224.723 332.043 225.826C331.954 226.93 331.292 227.553 330.485 228.188C330.191 228.327 330.033 228.421 329.687 228.478C328.725 228.639 327.65 228.37 326.937 227.676C326.127 226.887 326.013 226.241 325.881 225.188C326.223 223.829 326.474 223.464 327.546 222.562Z"/>
	<path fill="white" transform="scale(0.666667 0.666667)" d="M686.419 338.062C687.214 337.885 687.895 337.826 688.68 338.123C689.799 338.545 690.564 339.63 691.001 340.688C690.752 342.112 690.331 342.656 689.337 343.688C689.13 343.866 688.927 344.068 688.658 344.156C687.733 344.46 686.893 344.326 686.159 343.688C685.3 342.941 684.596 341.862 684.646 340.688C684.706 339.306 685.466 338.856 686.419 338.062Z"/>
	<path fill="white" transform="scale(0.666667 0.666667)" d="M330.137 357.562C330.462 357.423 330.561 357.36 330.958 357.312C332.028 357.184 333.279 357.387 334.052 358.19C334.621 358.783 334.793 359.669 334.832 360.465C334.92 362.275 334.36 362.917 333.188 364.12L332.062 364.495C331.016 364.366 330.254 364.219 329.438 363.454C328.531 362.606 328.417 361.167 328.505 360C328.597 358.763 329.294 358.324 330.137 357.562Z"/>
	<path fill="white" transform="scale(0.666667 0.666667)" d="M402.79 126.562C403.473 126.298 404.182 126.26 404.909 126.292C405.981 126.339 406.693 126.824 407.364 127.62C408.108 128.503 408.554 129.661 408.277 130.821C407.946 132.208 407.07 132.775 405.938 133.451C405.304 133.585 404.751 133.648 404.102 133.617C402.964 133.562 402.026 133.082 401.32 132.188C400.494 131.139 400.496 130.066 400.631 128.812C401.261 127.652 401.675 127.27 402.79 126.562Z"/>
	<path fill="white" transform="scale(0.666667 0.666667)" d="M625.585 374.526C628.111 372.436 630.958 370.735 633.548 368.721C637.317 365.792 640.611 362.406 643.874 358.935L644.449 359.253L643.677 361.171C640.862 364.567 637.914 367.682 634.522 370.512C631.16 373.316 625.684 375.876 623.304 379.449C622.599 378.882 622.75 378.987 622.581 378.188C622.968 376.86 624.661 375.604 625.585 374.526Z"/>
	<path fill="#16B3FC" transform="scale(0.666667 0.666667)" d="M615.437 238.766L616.062 237.78C618.159 234.879 621.504 232.82 625.065 232.382C629.246 231.869 632.79 233.707 636 236.153C635.562 236.417 635.168 236.771 634.688 236.943C634.01 237.186 631.427 236.572 630.539 236.463C627.863 236.135 624.718 235.776 622.042 236.187C619.848 236.524 618.861 238.254 617.062 238.884C616.784 238.981 615.784 238.791 615.437 238.766Z"/>
	<path fill="#37184E" transform="scale(0.666667 0.666667)" d="M637.657 566.457C639.824 566.305 647.178 565.587 648.621 566.724L648.562 567.762L619.34 568.549C616.427 568.582 611.046 569.203 608.547 567.938L608.812 567.353L637.657 566.457Z"/>
	<path fill="#FBDC8D" transform="scale(0.666667 0.666667)" d="M639.294 207.562C640.127 207.379 641.202 207.214 642.039 207.401C643.122 207.643 644.042 208.518 644.576 209.459C645.284 210.706 645.56 212.145 645.053 213.523C644.564 214.857 643.428 215.542 642.188 216.051C641.522 216.219 640.939 216.384 640.251 216.24C639.02 215.983 637.76 215.096 637.065 214.051C636.421 213.084 636.331 211.858 636.571 210.753C636.906 209.216 638.004 208.297 639.294 207.562Z"/>
	<path fill="#D569F9" transform="scale(0.666667 0.666667)" d="M276.994 275.813C278.218 275.509 279.331 275.365 280.5 275.925C282.073 276.679 283.319 278.12 283.797 279.805C284.172 281.123 284.098 282.663 283.408 283.864C282.597 285.275 281.747 285.849 280.212 286.312C279.453 286.456 278.645 286.504 277.875 286.405C276.538 286.234 275.103 285.233 274.374 284.123C273.58 282.915 273.241 281.362 273.528 279.947L273.615 279.562L273.757 278.903C274.27 277.342 275.57 276.436 276.994 275.813Z"/>
	<path fill="#FBDC8D" transform="scale(0.666667 0.666667)" d="M414.545 59.8125C415.501 59.5656 416.434 59.7024 417.375 59.9682C419.266 60.5026 420.757 61.8219 421.705 63.5186C422.625 65.1641 422.959 67.576 422.322 69.3723C421.569 71.4963 420.132 72.5193 418.208 73.5117C417.004 73.6622 415.501 73.74 414.318 73.4149C412.848 73.011 411.443 71.723 410.754 70.387C409.705 68.3517 409.592 65.6215 410.391 63.4842C411.127 61.5167 412.723 60.6264 414.545 59.8125Z"/>
	<path fill="#37184E" transform="scale(0.666667 0.666667)" d="M185.454 160.618C187.86 160.382 191.234 160.555 193.21 162.138C194.59 163.243 197.19 164.942 197.982 166.5C198.954 168.413 198.505 171.901 197.718 173.812C196.691 176.307 194.307 177.468 191.968 178.419L191.35 178.566C188.709 179.169 186.425 179.697 184.057 178.087C181.766 176.53 181.154 174.227 180.599 171.668C180.087 169.307 179.592 165.33 181.348 163.35L181.847 162.929C183.05 161.895 183.956 161.176 185.454 160.618Z"/>
	<path fill="#D569F9" transform="scale(0.666667 0.666667)" d="M188.557 163.131C189.781 163.036 191.296 162.942 192.484 163.268C193.801 163.63 194.985 164.569 195.653 165.753C196.348 166.985 196.352 168.437 195.916 169.76C195.252 171.772 193.89 172.631 192.095 173.571L188.625 173.651C187.168 173.468 186.26 172.775 185.438 171.583C184.686 170.493 184.302 168.656 184.626 167.367C185.151 165.279 186.85 164.211 188.557 163.131Z"/>
	<path fill="white" transform="scale(0.666667 0.666667)" d="M446.641 481.727C443.304 481.235 438.674 481.014 435.719 479.431C432.549 477.732 429.78 474.671 427.199 472.187L413.62 458.625C411.321 456.225 408.762 453.929 406.743 451.29C412.981 453.799 418.761 455.623 425.426 456.777C426.558 456.997 428.133 457.11 429.188 457.542C430.895 458.242 432.81 461.529 433.887 462.964L444.178 476.771C445.264 478.376 446.003 479.906 446.641 481.727Z"/>
	<path fill="#BC0863" transform="scale(0.666667 0.666667)" d="M306.25 185.679L308.781 187.317L311.952 190.285L313.156 191.85C316.016 196.302 316.596 200.971 315.45 206.079C314.602 209.861 312.037 214.839 308.725 216.98C306.914 218.63 303.995 221.421 301.618 221.907C296.85 223.826 292.373 224.127 287.316 223.283C287.797 222.813 288.192 222.43 288.787 222.103L289.312 221.819C290.401 221.174 291.15 220.164 292.134 219.401C296.98 215.643 302.731 211.853 304.51 205.502L304.689 204.844L304.875 204.248L305.389 201.564L305.553 201.292C306.879 198.581 307.12 192.639 306.358 189.77C305.957 188.26 306.025 187.227 306.25 185.679Z"/>
	<path fill="#BE0663" transform="scale(0.666667 0.666667)" d="M308.781 187.317L311.952 190.285C311.504 190.766 311.029 191.236 310.809 191.873C310.289 193.376 310.507 195.241 310.342 196.826C309.781 202.215 308.194 207.178 305.062 211.61C303.846 213.331 302.608 215.072 301.019 216.478C299.239 218.053 297.038 219.334 295.455 221.1L294.439 221.2C296.452 218.895 298.92 217.17 300.938 214.921C305.906 209.384 308.18 202.534 308.605 195.188C308.757 192.558 308.533 189.946 308.781 187.317Z"/>
	<path fill="#9A0067" transform="scale(0.666667 0.666667)" d="M311.952 190.285L313.156 191.85C312.672 192.762 312.525 193.265 312.433 194.316C311.763 201.952 309.616 208.717 306.251 215.543C305.736 216.588 304.681 217.272 304.688 218.451C306.098 218.31 306.905 217.171 307.908 216.285C308.349 215.895 308.184 216.024 308.812 215.816L309.184 216.188L308.725 216.98C306.914 218.63 303.995 221.421 301.618 221.907L301.125 221.066C300.364 221.333 299.637 221.597 298.84 221.735L298.312 221.82C297.019 222.178 296.155 222.234 294.804 222.215L294.939 221.719L292.688 221.625C293.434 221.03 293.527 221.196 294.439 221.2L295.455 221.1C297.038 219.334 299.239 218.053 301.019 216.478C302.608 215.072 303.846 213.331 305.062 211.61C308.194 207.178 309.781 202.215 310.342 196.826C310.507 195.241 310.289 193.376 310.809 191.873C311.029 191.236 311.504 190.766 311.952 190.285Z"/>
	<path fill="#750465" transform="scale(0.666667 0.666667)" d="M313.156 191.85C316.016 196.302 316.596 200.971 315.45 206.079C314.602 209.861 312.037 214.839 308.725 216.98L309.184 216.188L308.812 215.816C308.184 216.024 308.349 215.895 307.908 216.285C306.905 217.171 306.098 218.31 304.688 218.451C304.681 217.272 305.736 216.588 306.251 215.543C309.616 208.717 311.763 201.952 312.433 194.316C312.525 193.265 312.672 192.762 313.156 191.85Z"/>
	<path fill="#FBDC8D" transform="scale(0.666667 0.666667)" d="M664.409 252.058C666.424 251.919 668.21 252.104 670.103 252.856C673.458 254.187 676.684 257.17 677.983 260.575C679.044 263.36 678.738 267.36 677.387 270.007C675.812 273.095 672.93 274.286 669.844 275.326C666.719 275.488 664.209 275.312 661.356 273.88C658.76 272.576 656.399 269.978 655.533 267.188C654.618 264.235 654.744 260.552 656.279 257.812C658.198 254.389 660.771 253.008 664.409 252.058Z"/>
	<path fill="#37184E" transform="scale(0.666667 0.666667)" d="M322.147 130.398C323.469 127.83 328.495 122.161 331.312 121.483C333.797 120.886 338.999 123.179 341.023 124.637C344.221 126.939 346.159 131.329 346.735 135.171C346.963 136.686 346.487 138.599 345.562 139.807C343.668 142.282 339.548 143.45 336.562 143.62L334.244 143.636L333.858 143.918C333.801 145.696 334 147.696 332.998 149.227C331.943 149.939 331.833 149.985 330.562 149.994C329.6 149.101 329.105 148.788 329.042 147.375C328.97 145.73 329.627 144.063 328.843 142.524L327.563 142.463C325.217 141.496 321.872 140.07 320.661 137.664C319.798 135.949 320.23 133.714 320.781 131.971L322.147 130.398Z"/>
	<path fill="#272992" transform="scale(0.666667 0.666667)" d="M331.44 126.689L332.342 127.168C332.389 128.551 332.537 129.876 332.053 131.196C331.283 131.71 331.725 132.195 330.775 132.584C328.943 133.336 327.645 134.154 326.179 135.514C325.326 135.219 325.296 135.178 324.775 134.438C324.635 132.899 324.774 131.614 325.718 130.329C326.785 128.875 328.441 127.873 330.195 127.568C330.798 127.463 331 127.102 331.44 126.689Z"/>
	<path fill="#231F85" transform="scale(0.666667 0.666667)" d="M331.44 126.689L331.918 125.894C332.573 126.226 332.62 126.305 333 126.89L333.284 126.96L336.771 128.267L337.312 128.5C338.392 129.016 339.192 129.843 340.316 130.312L340.316 131.438L340.827 131.903C341.716 132.739 341.897 134.033 342.941 134.625L342.756 135.094C342.633 135.544 342.709 135.679 342.707 136.163C342.701 137.489 342.245 138.305 341.438 139.316C338.837 140.894 336.366 139.176 334.125 141.191L333.375 141.562L333.147 141.188L332.965 142.123L332.438 142.309C331.547 141.194 331.654 140.835 331.558 139.449L331.468 138.614C330.212 136.96 328.039 136.322 326.179 135.514C327.645 134.154 328.943 133.336 330.775 132.584C331.725 132.195 331.283 131.71 332.053 131.196C332.537 129.876 332.389 128.551 332.342 127.168L331.44 126.689Z"/>
	<path fill="white" transform="scale(0.666667 0.666667)" d="M326.179 135.514C327.645 134.154 328.943 133.336 330.775 132.584C331.725 132.195 331.283 131.71 332.053 131.196L332.445 131.564C334.316 133.301 335.506 134.206 338.062 134.616C339.003 134.766 339.957 134.917 340.864 135.212C338.559 135.65 334.437 135.933 332.803 137.812L332.017 139.228L331.558 139.449L331.468 138.614C330.212 136.96 328.039 136.322 326.179 135.514Z"/>
	<path fill="#37184E" transform="scale(0.666667 0.666667)" d="M0 0.75L0.421875 0.046875L210.061 -0.0032427L616.357 -0.00152501L739.733 -0.000303033L761.626 -6.26381e-05C762.99 -4.74909e-05 766.159 -0.436278 767.25 0C767.46 0.0841115 767.633 0.242187 767.824 0.363281L768 0.75C762.907 0.176652 757.485 0.564612 752.345 0.566504L724.888 0.523684L636.761 0.550881L610.34 0.470474C605.979 0.470045 601.332 0.800391 597 0.439949C591.787 0.00616988 586.169 0.471591 580.889 0.413988L518.332 0.55089L507.553 0.5611C506.683 0.555244 505.77 0.870818 504.938 0.821467C503.422 0.731651 501.786 0.378193 500.25 0.625903C498.513 0.905975 496.183 1.15138 494.438 0.827285C492.584 0.483209 490.841 0.735426 488.939 0.753742L479.452 0.78389C474.224 0.783402 468.574 0.239165 463.406 0.682574L108.376 0.62658C101.974 1.18102 95.3099 0.781968 88.875 0.832819L40.5582 0.908489L17.1328 0.90248C13.7948 0.898482 9.9151 1.30889 6.65621 0.760069C4.34715 0.371209 2.27793 0.875963 0 0.75Z"/>
	<path fill="white" transform="scale(0.666667 0.666667)" d="M441.612 567.283C445.789 565.548 451.603 564.483 455.898 566.243C459.048 567.535 461.858 569.73 464.572 571.746L476.245 580.888C481.932 585.552 488.284 590.029 492.86 595.835L494.748 603.33C484.474 597.939 476.258 589.879 466.361 584.062C463.824 582.571 461.386 581.845 458.769 580.628C458.48 579.979 442.961 568.302 441.612 567.283Z"/>
	<path fill="#762EAA" transform="scale(0.666667 0.666667)" d="M201.041 191.612C203.976 191.38 208.376 193.916 210.999 195.321C213.737 196.789 216.057 199.12 216.901 202.157C217.888 205.708 218.648 209.576 216.62 212.908C214.491 216.406 210.581 219.197 206.673 220.203C204.078 220.414 201.827 220.264 199.386 219.366L198.75 219.125C195.729 218.003 193.241 216.156 191.472 213.434C189.103 209.787 188.26 206.024 189.249 201.75C189.991 198.543 191.649 196.033 194.513 194.342L195.002 194.062C196.927 192.942 198.935 192.298 201.041 191.612Z"/>
	<path fill="#5D44C6" transform="scale(0.666667 0.666667)" d="M213.355 202.873C214.284 204.343 214.583 205.609 214.233 207.341L213.752 209.627C213.65 210.134 213.546 210.44 213.307 210.915L211.877 213.752L211.691 214.312C211.068 215.458 208.945 216.924 207.716 217.233L207.375 217.316C206.527 217.744 206.465 217.689 205.5 217.691L204.941 218.062C203.981 218.092 202.955 218.203 202.031 217.895C201.272 217.642 200.842 217.416 200.015 217.359C198.77 217.274 198.376 216.157 197.062 215.816C196.822 215.341 196.586 214.96 196.213 214.576C195.216 213.551 194.418 212.468 193.873 211.127L193.309 209.625C192.851 208.8 192.936 208.693 192.934 207.75C192.336 206.851 192.56 205.464 192.559 204.375L192.934 203.812C192.887 203.035 192.844 202.609 193.204 201.89L193.498 201.373C193.986 200.277 195.255 198.951 196.353 198.401C197.374 197.89 196.369 198.532 197.438 197.82L200.25 195.934L200.998 195.373C202.207 194.792 202.314 193.639 203.625 193.309L204.562 194.059C205.46 195.034 205.377 196.18 205.361 197.399L205.093 200.438C205.656 201.026 205.319 200.79 206.123 201.119C208.463 201.021 210.739 200.488 212.603 202.162L213.355 202.873Z"/>
	<path fill="#7055D8" transform="scale(0.666667 0.666667)" d="M194.706 203.922C194.893 203.266 195.072 202.587 195.459 202.014C196.456 200.539 198.304 199.986 199.621 198.882C201.094 197.648 202.009 195.725 204 195.345C204.903 195.921 204.953 196.428 205.361 197.399L205.093 200.438C205.656 201.026 205.319 200.79 206.123 201.119L204.25 201.562C204.056 202.344 204.033 201.925 204.432 202.723C204.732 203.325 204.818 203.653 204.714 204.335C202.846 202.757 201.746 201.86 199.184 201.78C197.122 201.715 196.164 202.565 194.706 203.922Z"/>
	<path fill="#AE55E5" transform="scale(0.666667 0.666667)" d="M206.123 201.119C208.463 201.021 210.739 200.488 212.603 202.162L213.355 202.873C212.78 206.11 211.377 207.943 208.83 209.926C208.518 210.169 208.403 210.216 208.09 210.38C207.213 208.718 204.998 206.049 204.714 204.335C204.818 203.653 204.732 203.325 204.432 202.723C204.033 201.925 204.056 202.344 204.25 201.562L206.123 201.119Z"/>
	<path fill="#D569F9" transform="scale(0.666667 0.666667)" d="M194.706 203.922C196.164 202.565 197.122 201.715 199.184 201.78C201.746 201.86 202.846 202.757 204.714 204.335C204.998 206.049 207.213 208.718 208.09 210.38C206.546 211.916 205.119 212.813 202.875 212.893C200.706 212.971 198.141 211.853 196.688 210.247C195.026 208.412 194.649 206.304 194.706 203.922Z"/>
	<defs>
		<linearGradient id="gradient_0" gradientUnits="userSpaceOnUse" x1="283.38181" y1="406.79608" x2="298.66455" y2="395.96854">
			<stop offset="0" stop-color="#633297"/>
			<stop offset="1" stop-color="#745FCA"/>
		</linearGradient>
	</defs>
	<path fill="url(#gradient_0)" transform="scale(0.666667 0.666667)" d="M198.309 350.963L199.123 350.825C199.669 351.366 200.122 352.124 200.906 352.127C201.728 353.012 202.509 354.084 203.625 354.562L203.812 355.125L204.469 355.406C205.118 355.787 205.62 356.461 206.344 356.906L207.281 357.752L207.75 358.125L208.23 358.529L210.299 360.023C210.775 360.404 210.978 360.434 211.5 360.658C212.11 360.921 211.943 360.828 212.306 361.189C213.231 362.108 214.549 362.643 215.625 363.375L216.281 363.752L216.802 364.097C217.434 364.498 217.152 364.379 217.873 364.502L218.128 364.734C218.831 365.366 219.396 365.526 220.123 366.002L220.5 366.375L221.719 367.031L223.676 368.262C224.272 368.659 224.452 368.557 225 368.812L225.75 369.375L233.25 373.875C233.893 374.259 234.509 374.569 235.125 375L237.943 376.869C238.74 377.4 239.397 377.973 240.07 378.645C241.007 379.579 240.067 378.736 241.219 379.406C242.108 379.924 242.856 380.795 243.753 381.367C244.764 382.01 246.065 383.998 247.123 384.002L248.062 385.125L248.531 385.127C249.42 386.082 250.173 387.071 251.344 387.656C251.748 387.859 252.149 388.255 252.492 388.535L256.635 391.553C257.21 392.023 257.746 392.254 258.375 392.625L261.375 394.5C261.91 394.82 262.44 395.055 262.951 395.42C263.342 395.699 263.145 395.594 263.619 395.713C264.179 395.853 264.921 396.314 265.5 396.562L266.438 397.125C267.236 397.531 267.932 397.76 268.693 398.267C269.355 398.708 269.529 398.574 270.188 398.816L271.125 399.375C271.815 399.787 272.201 400.01 272.998 400.127L273.375 400.5L275.115 401.385C275.808 401.699 275.505 401.551 276.205 402.018C276.785 402.405 276.968 402.308 277.5 402.562L278.25 403.125C278.852 403.517 279.329 403.757 280.031 403.877L280.33 404.147C281.269 404.955 280.052 403.941 281.156 404.627L282 405.375C282.003 404.769 281.716 404.402 281.441 403.875L281.816 403.312L281.627 402.748C281.422 402.052 281.425 401.405 281.441 400.688L281.816 400.125C281.816 399.04 281.475 396.529 282.191 395.812C282.191 394.878 282.034 394.549 282.566 393.75C282.562 392.824 282.738 393.178 282.191 392.625L282.59 391.064C286.865 388.136 291.547 383.73 297.263 384.667C300.324 385.168 303.785 387.789 305.492 390.303C307.409 393.125 307.944 396.638 307.264 399.955C306.814 402.15 305.889 404.117 304.543 405.909C303.3 407.565 301.498 408.361 301.264 410.595L300.89 410.854C299.637 411.684 298.253 412.193 297 413.059C296.281 413.062 296.222 412.899 295.688 413.434L295.309 413.062L294.75 413.434L293.436 413.531L293.906 413.906L294.562 413.625C295.255 414.086 294.989 413.82 295.406 414.373L295.2 414.928L295.501 415.5L295.043 415.964C289.65 411.749 284.594 407.494 278.602 404.104C271.773 400.242 264.346 397.382 257.734 393.147C250.351 388.418 244.194 382.235 237.048 377.22C227.482 370.506 216.895 364.991 207.059 358.611C206.992 358.29 206.582 358.162 206.334 357.947L198.309 350.963Z"/>
	<path fill="#7BFEFC" transform="scale(0.666667 0.666667)" d="M295.562 388.688C296.364 388.551 297.356 388.419 298.158 388.565C299.554 388.819 301.055 390.158 301.766 391.34C302.715 392.917 302.752 394.934 302.33 396.68C301.852 398.66 300.824 399.505 299.134 400.51C297.841 400.595 296.123 400.776 294.875 400.446C293.962 400.204 293.255 399.218 292.82 398.438C291.688 396.407 291.226 394.633 292.015 392.394C292.693 390.472 293.808 389.598 295.562 388.688Z"/>
	<path fill="#AE55E5" transform="scale(0.666667 0.666667)" d="M636 236.153C639.463 239.569 642.067 243.843 642.262 248.848C642.428 253.093 640.266 257.853 637.314 260.796C634.695 263.407 631.824 264.726 628.077 264.708C625.327 264.695 623.357 263.295 621.463 261.43C620.092 259.518 618.359 257.745 616.728 256.053C615.137 254.277 614.133 252.33 613.481 250.04C612.356 246.091 613.464 242.208 615.437 238.766C615.784 238.791 616.784 238.981 617.062 238.884C618.861 238.254 619.848 236.524 622.042 236.187C624.718 235.776 627.863 236.135 630.539 236.463C631.427 236.572 634.01 237.186 634.688 236.943C635.168 236.771 635.562 236.417 636 236.153Z"/>
	<path fill="#762EAA" transform="scale(0.666667 0.666667)" d="M458.769 580.628C461.386 581.845 463.824 582.571 466.361 584.062C476.258 589.879 484.474 597.939 494.748 603.33C496.584 604.525 499.273 604.373 501.413 604.524L515.509 605.223C516.799 605.237 519.228 604.867 520.312 605.225C520.55 605.304 521.025 605.782 521.227 605.965L526.988 645.99C524.097 643.763 521.589 640.538 518.982 637.945L505.393 625.103C500.613 620.532 495.534 615.126 490.014 611.513L458.769 580.628Z"/>
	<defs>
		<linearGradient id="gradient_1" gradientUnits="userSpaceOnUse" x1="302.94296" y1="208.53239" x2="282.27341" y2="197.1187">
			<stop offset="0" stop-color="#D30064"/>
			<stop offset="1" stop-color="#FF3296"/>
		</linearGradient>
	</defs>
	<path fill="url(#gradient_1)" transform="scale(0.666667 0.666667)" d="M283.882 184.197C289.525 181.405 295.759 181.915 301.613 183.601L306.25 185.679C306.025 187.227 305.957 188.26 306.358 189.77C307.12 192.639 306.879 198.581 305.553 201.292L305.389 201.564L304.875 204.248L304.689 204.844L304.51 205.502C302.731 211.853 296.98 215.643 292.134 219.401C291.15 220.164 290.401 221.174 289.312 221.819L288.787 222.103C288.192 222.43 287.797 222.813 287.316 223.283C285.432 222.718 283.492 221.97 281.764 221.022C276.523 218.15 273.1 213.374 271.51 207.71C271.204 204.607 271.111 201.82 271.918 198.75C273.696 191.992 277.958 187.503 283.882 184.197Z"/>
	<path fill="#BE0663" transform="scale(0.666667 0.666667)" d="M301.613 183.601L306.25 185.679C306.025 187.227 305.957 188.26 306.358 189.77C307.12 192.639 306.879 198.581 305.553 201.292L305.389 201.564C305.093 201.171 304.909 200.909 304.774 200.425L304.691 200.062L304.065 199.634C303.878 198.528 304.021 197.595 304.177 196.5C304.471 194.44 304.146 192.424 303.852 190.378L303.772 189.844L303.808 189.281C303.449 188.777 303.259 188.423 303.076 187.822L301.613 183.601Z"/>
	<path fill="#FF98D2" transform="scale(0.666667 0.666667)" d="M283.882 184.197C284.974 186.758 284.859 190.916 283.896 193.487C282.136 198.182 277.093 205.478 272.256 207.449L271.51 207.71C271.204 204.607 271.111 201.82 271.918 198.75C273.696 191.992 277.958 187.503 283.882 184.197Z"/>
	<path fill="#37184E" transform="scale(0.666667 0.666667)" d="M627.29 601.855C625.789 601.404 622.677 601.842 621.021 601.875L609.953 571.96L649.088 570.675L650.573 575.604L650.805 576.262C652.743 583.786 654.972 591.092 655.898 598.835L655.687 600.573C652.85 601.673 649.347 600.974 646.347 601.445L627.29 601.855Z"/>
	<path fill="#67AEC2" transform="scale(0.666667 0.666667)" d="M555.361 292.209C561.385 292.422 569.702 299.391 573.596 303.547C584.301 314.976 587.371 332.509 586.776 347.6C585.951 368.554 574.585 385.147 559.578 398.922C540.581 416.359 517.268 429.026 493.125 437.716C473.483 444.787 452.243 449.602 431.25 448.668C421.416 448.23 410.197 446.687 401.636 441.478C399.126 439.75 397.017 437.439 395.142 435.055L394.602 434.528C394.377 433.214 394.315 432.336 394.622 431.033C399.441 433.007 404.389 434.7 409.447 435.939C410.989 436.316 412.843 436.957 414.414 436.822L414.698 436.801C414.854 438.895 414.863 441.047 415.825 442.957C437.5 446.278 460.639 443.971 481.528 437.458C491.95 434.21 501.985 429.808 511.962 425.411L513.375 424.877C519.581 422.537 525.799 418.566 531.423 415.045C542.746 407.957 553.615 400.845 562.581 390.8C566.315 387.082 569.986 382.84 572.951 378.481C582.788 364.016 585.204 345.334 581.792 328.371C578.547 312.24 568.735 301.134 555.361 292.209Z"/>
	<path fill="#750465" transform="scale(0.666667 0.666667)" d="M394.622 431.033C399.441 433.007 404.389 434.7 409.447 435.939C410.989 436.316 412.843 436.957 414.414 436.822L414.698 436.801C414.854 438.895 414.863 441.047 415.825 442.957C408.667 441.833 402.152 438.419 395.968 434.825L395.142 435.055L394.602 434.528C394.377 433.214 394.315 432.336 394.622 431.033Z"/>
	<path fill="#737A9A" transform="scale(0.666667 0.666667)" d="M629.889 524.416C630.568 524.333 631.371 524.423 632.062 524.427C634.14 527.44 635.219 532.263 636.495 535.779C639.512 544.086 642.348 552.622 645.98 560.679C641.336 560.062 636.564 560.281 631.891 560.366L612.209 560.79L608.062 560.866C606.52 558.282 605.822 554.483 604.836 551.587C601.859 542.842 599.005 533.808 594.439 525.741C599.321 525.062 604.48 525.422 609.41 525.319L629.889 524.416Z"/>
	<path transform="scale(0.666667 0.666667)" d="M414.698 436.801C416.887 436.064 420.092 436.291 422.438 436.136C426.381 435.875 430.324 435.514 434.216 434.812C447.547 432.406 458.65 426.418 469.237 418.19C473.107 415.182 477.594 411.398 480.399 407.347C487.241 411.931 493.983 416.58 501.469 420.083C505.017 421.744 509.018 422.608 512.468 424.324L511.962 425.411C501.985 429.808 491.95 434.21 481.528 437.458C460.639 443.971 437.5 446.278 415.825 442.957C414.863 441.047 414.854 438.895 414.698 436.801Z"/>
	<defs>
		<linearGradient id="gradient_2" gradientUnits="userSpaceOnUse" x1="597.13629" y1="324.28809" x2="638.37537" y2="308.22046">
			<stop offset="0" stop-color="#2D2143"/>
			<stop offset="1" stop-color="#514573"/>
		</linearGradient>
	</defs>
	<path fill="url(#gradient_2)" transform="scale(0.666667 0.666667)" d="M616.728 256.053C618.359 257.745 620.092 259.518 621.463 261.43C621.44 263.249 622.287 265.067 622.924 266.753L626.279 275.562L632.084 293.761C636.027 306.263 642.197 320.663 640.348 333.916C644.009 335.463 647.387 336.935 649.045 340.875C650.407 344.113 648.921 348.044 647.63 351.059C646.478 353.752 644.997 356.287 644.526 359.204L644.449 359.253L643.874 358.935C640.611 362.406 637.317 365.792 633.548 368.721C630.958 370.735 628.111 372.436 625.585 374.526C625.429 372.714 626.645 370.14 627.079 368.322C627.617 366.067 627.907 363.801 628.17 361.5C624.609 354.451 619.491 353.988 612.497 352.92C611.09 352.705 609.316 352.6 608.05 351.945C606.377 351.08 606.1 348.791 605.676 347.128L603.675 337.19C603.571 335.243 602.793 332.923 602.351 330.999L597.582 313.848L592.095 298.57C593.988 295.429 597.991 293.135 601.089 291.357C606.853 288.051 614.245 279.669 615.823 273.095C616.845 268.838 613.932 264.124 611.861 260.557C612.369 259.732 611.896 258.757 612.402 258.051C613.358 256.717 615.246 256.437 616.728 256.053Z"/>
	<path fill="#5F4C7F" transform="scale(0.666667 0.666667)" d="M622.702 327.405C623.502 327.104 625.63 327.412 626.52 327.598C628.694 328.053 630.492 329.324 631.63 331.251C632.811 333.25 632.826 336.786 632.13 338.936C631.575 340.648 629.849 342.269 628.262 343.06C625.001 344.688 621.06 344.355 617.694 343.297L614.23 341.666C613.093 339.462 612.423 337.526 611.966 335.07C611.86 334.502 611.463 333.199 611.761 332.767L612.535 335.99L613.219 338.064L613.316 337.125C613.182 336.448 612.995 335.983 612.941 335.25L613.502 334.127C614.215 332.519 614.846 331.454 616.096 330.205L616.406 329.906C617.426 328.877 617.781 328.843 619.024 328.318C620.359 327.752 621.239 327.575 622.702 327.405Z"/>
	<defs>
		<linearGradient id="gradient_3" gradientUnits="userSpaceOnUse" x1="566.50262" y1="361.75861" x2="472.37256" y2="347.75674">
			<stop offset="0" stop-color="#BC1900"/>
			<stop offset="1" stop-color="#E52E0C"/>
		</linearGradient>
	</defs>
	<path fill="url(#gradient_3)" transform="scale(0.666667 0.666667)" d="M480.794 283.329C488.317 282.207 496.476 282.413 504.081 282.619C505.895 282.668 508.327 282.451 510.056 283C512.082 287.27 514.085 291.976 517.287 295.523C521.226 299.888 527.357 302.757 532.132 306.164C538.377 310.62 544.314 315.99 548.911 322.149C556.583 332.431 560.964 344.861 563.281 357.375C564.358 363.194 565.182 369.117 565.032 375.053C564.945 378.535 564.542 382.112 563.798 385.517C563.43 387.201 562.672 389.098 562.581 390.8C553.615 400.845 542.746 407.957 531.423 415.045C525.799 418.566 519.581 422.537 513.375 424.877L511.962 425.411L512.468 424.324C514.29 420.238 515.973 416.29 517.068 411.938C519.923 400.59 519.503 388.184 517.29 376.769C514.206 360.861 506.788 345.778 500.9 330.761L489.415 301.42C486.864 295.296 484.217 289.026 480.794 283.329Z"/>
	<defs>
		<linearGradient id="gradient_4" gradientUnits="userSpaceOnUse" x1="434.48447" y1="400.71521" x2="617.8913" y2="428.48563">
			<stop offset="0" stop-color="#5CA0B5"/>
			<stop offset="1" stop-color="#DED9DB"/>
		</linearGradient>
	</defs>
	<path fill="url(#gradient_4)" transform="scale(0.666667 0.666667)" d="M605.676 347.128C606.1 348.791 606.377 351.08 608.05 351.945C609.316 352.6 611.09 352.705 612.497 352.92C619.491 353.988 624.609 354.451 628.17 361.5C627.907 363.801 627.617 366.067 627.079 368.322C626.645 370.14 625.429 372.714 625.585 374.526C624.661 375.604 622.968 376.86 622.581 378.188C622.75 378.987 622.599 378.882 623.304 379.449C621.503 384.521 619.564 389.601 616.873 394.276C604.88 415.112 585.039 432.637 565.768 446.565C555.767 453.794 545.84 460.267 534.645 465.587L524.494 470.018C523.464 470.41 522.054 471.147 520.978 471.295C503.939 478.327 486.039 480.961 467.793 482.269C460.972 482.278 453.363 482.915 446.641 481.727C446.003 479.906 445.264 478.376 444.178 476.771L433.887 462.964C432.81 461.529 430.895 458.242 429.188 457.542C428.133 457.11 426.558 456.997 425.426 456.777C445.642 457.241 466.286 454.465 485.625 448.491C493.201 446.151 500.554 443.137 507.859 440.068L526.847 431.105L527.274 431.759C528.776 432.242 530.525 431.253 531.928 430.649C554.74 420.832 573.629 403.29 588.382 383.658C591.058 380.097 593.891 376.648 596.163 372.804C599.277 367.534 601.555 361.557 603.865 355.896C605.04 353.016 604.982 350.13 605.676 347.128Z"/>
	<path fill="#37184E" transform="scale(0.666667 0.666667)" d="M446.525 286.956L480.794 283.329C484.217 289.026 486.864 295.296 489.415 301.42L500.9 330.761C506.788 345.778 514.206 360.861 517.29 376.769C519.503 388.184 519.923 400.59 517.068 411.938C515.973 416.29 514.29 420.238 512.468 424.324C509.018 422.608 505.017 421.744 501.469 420.083C493.983 416.58 487.241 411.931 480.399 407.347C477.401 404.593 473.734 402.453 470.625 399.756C461.143 391.531 455.676 380.256 451.245 368.717C445.575 351.444 439.691 332.062 440.23 313.688C440.399 307.957 441.468 302.273 442.833 296.723C443.717 293.357 445.111 290.127 446.525 286.956Z"/>
	<path fill="#FC6B25" transform="scale(0.666667 0.666667)" d="M53.5449 282.095C57.2436 269.991 61.068 258.205 66.1963 246.614C73.1555 230.885 81.5274 215.367 91.154 201.108L104.961 182.511C129.255 150.885 157.819 123.851 190.676 101.302C262.317 52.137 353.266 29.2972 439.237 45.4553C457.721 48.9293 476.004 53.3931 493.82 59.4513C545.578 77.0518 594.253 106.978 632.392 146.281C640.734 154.877 649.98 163.898 656.75 173.83L662.483 181.465C661.629 181.81 659.173 182.473 658.609 183.033C658.06 183.579 657.323 185.097 656.992 185.829C656.066 187.872 656.357 190.139 655.675 192.251L651.196 185.722C650.256 185.169 648.714 182.537 647.991 181.583L636.231 166.164C625.694 152.902 613.9 140.289 601.095 129.198C589.315 118.994 577.081 110.123 563.976 101.704C554.188 95.4154 544.348 89.5319 533.828 84.516C524.417 80.0289 514.685 76.3077 504.965 72.5625C494.303 68.4544 483.543 64.4822 472.494 61.5193L451.691 56.9626C441.694 54.8792 431.737 52.7918 421.569 51.7002C398.079 49.1785 374.111 49.6901 350.578 51.3987C336.828 52.397 323.243 54.7393 309.781 57.6663C291.273 61.6906 272.525 67.248 255.026 74.5014C224.613 87.1078 195.609 105.287 170.421 126.432C159.805 135.344 149.181 145.025 140.098 155.527C128.304 167.574 116.811 181.548 107.879 195.879C96.4824 214.165 87.7351 234.673 80.914 255.098L71.191 287.63L53.5449 282.095Z"/>
	<path fill="#FFA052" transform="scale(0.666667 0.666667)" d="M651.196 185.722L651.752 185.452L652.464 186.411C653.591 187.479 652.648 186.281 653.437 187.302L653.719 187.689C653.869 186.532 654.318 185.922 654.752 184.877C655.796 182.363 657.48 180.46 659.025 178.229C658.409 177.084 657.681 176.024 656.842 175.031L656.441 174.562L656.75 173.83L662.483 181.465C661.629 181.81 659.173 182.473 658.609 183.033C658.06 183.579 657.323 185.097 656.992 185.829C656.066 187.872 656.357 190.139 655.675 192.251L651.196 185.722Z"/>
	<path fill="#FBDC8D" transform="scale(0.666667 0.666667)" d="M655.675 192.251C656.357 190.139 656.066 187.872 656.992 185.829C657.323 185.097 658.06 183.579 658.609 183.033C659.173 182.473 661.629 181.81 662.483 181.465C666.26 186.662 670.621 192.027 673.777 197.607C678.908 204.713 683.346 212.262 687.697 219.858C706.451 252.597 718.411 287.954 724.264 325.167C725.489 332.954 727.29 341.656 727.214 349.547C727.76 351.618 727.774 353.966 727.924 356.101L728.524 369.144C729.042 390.136 728.647 410.742 726.162 431.603C725.128 440.286 723.957 448.921 721.968 457.446L713.947 487.029C712.04 493.253 709.538 499.579 708.259 505.956L703.235 492.354C700.967 485.927 698.853 479.485 695.918 473.32C694.567 470.482 693.055 467.673 691.32 465.048C689.885 462.879 687.951 461.009 686.606 458.8C685.677 457.272 685.176 455.388 684.449 453.75C683.936 452.594 683.191 451.595 683.058 450.309C690.226 432.852 696.396 415.375 699.208 396.622C701.405 381.969 701.626 367.187 701.56 352.405C699.138 312.991 693.087 274.076 678.31 237.248C674.045 226.619 668.53 216.675 663.902 206.238C662.834 204.825 662.031 203.058 661.149 201.514L655.675 192.251Z"/>
	<defs>
		<linearGradient id="gradient_5" gradientUnits="userSpaceOnUse" x1="485.35208" y1="368.58487" x2="362.17191" y2="352.72876">
			<stop offset="0" stop-color="#00091E"/>
			<stop offset="1" stop-color="#80008B"/>
		</linearGradient>
	</defs>
	<path fill="url(#gradient_5)" transform="scale(0.666667 0.666667)" d="M428.596 289.959L446.556 286.49L446.525 286.956C445.111 290.127 443.717 293.357 442.833 296.723C441.468 302.273 440.399 307.957 440.23 313.688C439.691 332.062 445.575 351.444 451.245 368.717C455.676 380.256 461.143 391.531 470.625 399.756C473.734 402.453 477.401 404.593 480.399 407.347C477.594 411.398 473.107 415.182 469.237 418.19C458.65 426.418 447.547 432.406 434.216 434.812C430.324 435.514 426.381 435.875 422.438 436.136C420.092 436.291 416.887 436.064 414.698 436.801L414.414 436.822C412.843 436.957 410.989 436.316 409.447 435.939C404.389 434.7 399.441 433.007 394.622 431.033C391.298 428.794 388.598 425.915 385.882 422.995C380.755 417.483 376.038 411.579 372.005 405.216C361.309 388.342 354.05 368.714 351.184 348.989C350.663 345.403 349.831 340.406 350.621 336.858C352.1 335.726 353.061 333.452 354.04 331.875L359.063 324.361C361.535 320.851 364.209 317.344 367.184 314.246C367.475 313.662 367.428 313.694 367.805 313.175C368.909 311.651 371.652 310.24 373.274 309.265C386.651 301.22 401.167 296.778 416.139 292.863C420.197 291.802 424.433 290.45 428.596 289.959Z"/>
	<path fill="#D569F9" transform="scale(0.666667 0.666667)" d="M367.184 314.246C369.049 338.659 371.775 363.412 381.623 386.108C385.296 394.574 389.867 402.294 394.757 410.09L402.532 421.905C403.709 423.563 404.937 425.598 406.406 427.003L406.689 427.245L411.546 433.283C412.495 434.392 413.726 435.533 414.414 436.822C412.843 436.957 410.989 436.316 409.447 435.939C404.389 434.7 399.441 433.007 394.622 431.033C391.298 428.794 388.598 425.915 385.882 422.995C380.755 417.483 376.038 411.579 372.005 405.216C361.309 388.342 354.05 368.714 351.184 348.989C350.663 345.403 349.831 340.406 350.621 336.858C352.1 335.726 353.061 333.452 354.04 331.875L359.063 324.361C361.535 320.851 364.209 317.344 367.184 314.246Z"/>
	<path fill="#67AEC2" transform="scale(0.666667 0.666667)" d="M439.962 189.508L440.014 189.43C463.229 182.285 487.567 179.156 511.739 182.336C538.102 186.161 562.395 198.72 581.07 217.634C587.618 224.265 593.595 231.948 599.169 239.405C601.755 242.863 604.457 246.614 606.24 250.565L611.861 260.557C613.932 264.124 616.845 268.838 615.823 273.095C614.245 279.669 606.853 288.051 601.089 291.357C597.991 293.135 593.988 295.429 592.095 298.57L597.582 313.848L602.351 330.999C602.793 332.923 603.571 335.243 603.675 337.19L605.676 347.128C604.982 350.13 605.04 353.016 603.865 355.896C601.555 361.557 599.277 367.534 596.163 372.804C593.891 376.648 591.058 380.097 588.382 383.658C573.629 403.29 554.74 420.832 531.928 430.649C530.525 431.253 528.776 432.242 527.274 431.759L526.847 431.105C543.934 421.839 559.006 411.219 572.646 397.322C585.314 384.416 596.327 368.466 598.349 350.048C598.702 346.832 598.501 343.442 598.466 340.206C597.78 336.95 597.701 333.375 597.196 330.056C596.403 324.844 594.974 319.799 593.463 314.757C593.298 314.653 588.93 304.77 588.21 303.488C578.753 286.677 559.181 279.274 541.562 274.312C530.061 271.073 518.326 269.762 506.433 269.014C473.7 266.957 439.928 270.476 408.188 278.554C395.708 281.729 382.92 285.453 371.65 291.853C363.932 296.236 354.632 302.858 350.642 311.049C349.893 312.585 349.494 314.424 349.045 316.072C354.57 312.571 359.115 307.44 364.68 303.78C369.68 300.493 375.212 298.034 380.712 295.714C394.097 290.065 408.293 286.246 422.609 283.824C429.764 282.614 437.147 281.698 444.375 282.806C445.719 283.012 447.622 283.207 448.731 283.995C448.479 285.043 447.729 285.507 446.942 286.17L446.556 286.49L428.596 289.959C424.433 290.45 420.197 291.802 416.139 292.863C401.167 296.778 386.651 301.22 373.274 309.265C371.652 310.24 368.909 311.651 367.805 313.175C367.428 313.694 367.475 313.662 367.184 314.246C364.209 317.344 361.535 320.851 359.063 324.361L354.04 331.875C353.061 333.452 352.1 335.726 350.621 336.858C347.574 336.136 343.871 336.994 340.672 336.691C339.657 336.594 338.881 336.157 338.281 335.317C336.451 332.752 336.482 329.102 336.574 326.103C336.74 320.623 337.398 315.247 338.125 309.818L338.751 306.845L341.008 296.051C343.939 283.714 348.235 271.903 354.049 260.625C367.8 233.948 388.813 211.464 416.062 198.412C423.741 194.733 431.871 192.106 439.962 189.508Z"/>
	<path fill="white" transform="scale(0.666667 0.666667)" d="M439.962 189.508L440.932 189.785C440.712 190.947 439.278 191.682 438.32 192.332C432.538 196.256 426.906 200.247 421.835 205.09C408.05 218.253 398.05 236.976 394.423 255.668C393.644 259.681 393.573 264.084 392.395 267.969C386.111 270.602 379.873 273.42 374.029 276.942C370.235 279.229 366.649 281.974 363.024 284.523C357.892 288.132 352.878 291.699 348.525 296.265C346.543 298.344 344.85 300.651 343.231 303.018C342.209 304.513 340.87 307.084 339.118 307.678L338.751 306.845L341.008 296.051C343.939 283.714 348.235 271.903 354.049 260.625C367.8 233.948 388.813 211.464 416.062 198.412C423.741 194.733 431.871 192.106 439.962 189.508Z"/>
	<defs>
		<linearGradient id="gradient_6" gradientUnits="userSpaceOnUse" x1="306.30035" y1="738.82318" x2="298.34613" y2="453.53055">
			<stop offset="0" stop-color="#3D1374"/>
			<stop offset="1" stop-color="#D5159D"/>
		</linearGradient>
	</defs>
	<path fill="url(#gradient_6)" transform="scale(0.666667 0.666667)" d="M48.2188 460.511C57.5872 461.479 66.5612 463.722 75.6327 466.188C87.0154 469.282 98.2481 472.982 108.902 478.088C120.227 483.515 130.637 490.43 140.625 497.993C157.978 511.132 173.585 526.31 187.312 543.229L190.549 547.414C198.431 538.465 208.151 534.172 219.85 532.421L222.435 531.953L230.509 532.201C231.713 532.247 233.293 532.589 234.45 532.398C243.445 534.491 251.579 539.337 258.149 545.723C259.667 544.733 260.687 544.139 262.528 544.5L264 544.902C269.442 546.464 274.863 548.315 280.392 549.52C287.822 551.139 295.782 551.848 303.375 551.697L329.438 550.102C338.989 549.845 349.011 550.166 358.366 552.195C365.471 553.736 372.663 556.648 379.283 559.632C393.137 565.875 405.805 573.588 417.669 583.083C423.62 587.847 427.926 593.796 431.25 600.601L431.685 603.137C432.804 607.093 432.158 609.617 430.187 613.15C427.274 618.369 422.275 624.269 424.036 630.666C425.499 635.984 428.805 640.658 432.228 644.892C435.515 648.411 438.869 651.787 442.768 654.642C457.706 665.58 476.798 670.453 494.871 672.991C504.539 674.349 514.213 675.126 523.812 677.01C529.315 678.09 534.717 679.676 540.1 681.237C544.099 682.396 548.743 684.002 552.938 683.974C553.391 683.971 553.486 683.938 553.877 683.86L555.85 685.783C553.462 687.377 550.552 688.455 547.979 689.741L532.581 697.61C512.295 707.84 491.349 717.155 469.617 723.895C446.818 730.966 422.443 735.27 398.582 736.402C351.301 738.644 306.298 729.061 262.825 710.793C250.625 705.667 238.542 700.064 226.974 693.629L209.48 683.342C206.697 681.651 203.339 679.97 200.943 677.789C200.374 677.628 199.454 676.901 198.922 676.566C178.969 663.996 160.278 648.718 143.267 632.437C129.601 619.359 116.886 605.626 105.533 590.469C84.7735 562.751 68.8272 531.147 58.1701 498.211C54.1719 485.855 51.0867 473.171 48.2188 460.511Z"/>
	<path transform="scale(0.666667 0.666667)" d="M264.692 554.95L267.465 561.382C271.366 576.077 271.302 591.596 263.433 605.037C257.46 615.237 247.689 623.172 236.175 626.125C224.425 629.139 212.641 627.367 202.251 621.091C200.021 619.744 197.816 618.035 195.988 616.181C202.94 616.708 212.509 613.863 218.703 610.683C218.958 610.684 219.404 610.432 219.615 610.335C231.447 604.892 241.059 594.786 248.994 584.709C253.777 578.635 258.275 572.146 261.167 564.938C261.491 564.131 261.625 563.289 261.934 562.5C262.46 561.152 262.618 559.903 263.059 558.562C263.245 557.996 263.352 557.613 263.392 557.012C263.461 555.971 264.006 555.693 264.692 554.95Z"/>
	<defs>
		<linearGradient id="gradient_7" gradientUnits="userSpaceOnUse" x1="258.47302" y1="583.11865" x2="180.5986" y2="566.77313">
			<stop offset="0" stop-color="#0E252B"/>
			<stop offset="1" stop-color="#00AFDC"/>
		</linearGradient>
	</defs>
	<path fill="url(#gradient_7)" transform="scale(0.666667 0.666667)" d="M222.435 531.953L230.509 532.201C231.713 532.247 233.293 532.589 234.45 532.398C243.445 534.491 251.579 539.337 258.149 545.723C260.743 548.692 262.754 551.521 264.692 554.95C264.006 555.693 263.461 555.971 263.392 557.012C263.352 557.613 263.245 557.996 263.059 558.562C262.618 559.903 262.46 561.152 261.934 562.5C261.625 563.289 261.491 564.131 261.167 564.938C258.275 572.146 253.777 578.635 248.994 584.709C241.059 594.786 231.447 604.892 219.615 610.335C219.404 610.432 218.958 610.684 218.703 610.683C212.509 613.863 202.94 616.708 195.988 616.181C187.391 608.944 181.377 598.006 179.766 586.922C177.675 572.544 181.993 558.957 190.549 547.414C198.431 538.465 208.151 534.172 219.85 532.421L222.435 531.953Z"/>
	<defs>
		<linearGradient id="gradient_8" gradientUnits="userSpaceOnUse" x1="263.0206" y1="590.12952" x2="338.841" y2="387.9082">
			<stop offset="0" stop-color="#E60036"/>
			<stop offset="1" stop-color="#FFFF7A"/>
		</linearGradient>
	</defs>
	<path fill="url(#gradient_8)" transform="scale(0.666667 0.666667)" d="M53.5449 282.095L71.191 287.63L76.1196 289.856L76.1739 290.016C81.3034 291.971 86.0234 295.189 91.0273 297.501L116.042 307.758C123.857 311.361 131.252 316.048 139.125 319.445C143.825 321.473 148.834 322.303 153.75 323.615C159.05 325.03 164.121 327.025 168.938 329.658C179.421 335.388 188.869 343.694 198.309 350.963L206.334 357.947C206.582 358.162 206.992 358.29 207.059 358.611C216.895 364.991 227.482 370.506 237.048 377.22C244.194 382.235 250.351 388.418 257.734 393.147C264.346 397.382 271.773 400.242 278.602 404.104C284.594 407.494 289.65 411.749 295.043 415.964L316.5 434.991L344.154 459.694C348.84 464.294 354.111 469.553 357.476 475.208L374.304 496.639C375.657 498.251 387.423 511.092 387.445 511.528C394.583 518.149 439.161 567.147 441.612 567.283C442.961 568.302 458.48 579.979 458.769 580.628L490.014 611.513C495.534 615.126 500.613 620.532 505.393 625.103L518.982 637.945C521.589 640.538 524.097 643.763 526.988 645.99C529.374 652.329 534.291 658.055 538.229 663.508C543.333 670.575 547.943 677.417 553.877 683.86C553.486 683.938 553.391 683.971 552.938 683.974C548.743 684.002 544.099 682.396 540.1 681.237C534.717 679.676 529.315 678.09 523.812 677.01C514.213 675.126 504.539 674.349 494.871 672.991C476.798 670.453 457.706 665.58 442.768 654.642C438.869 651.787 435.515 648.411 432.228 644.892C428.805 640.658 425.499 635.984 424.036 630.666C422.275 624.269 427.274 618.369 430.187 613.15C432.158 609.617 432.804 607.093 431.685 603.137L431.25 600.601C427.926 593.796 423.62 587.847 417.669 583.083C405.805 573.588 393.137 565.875 379.283 559.632C372.663 556.648 365.471 553.736 358.366 552.195C349.011 550.166 338.989 549.845 329.438 550.102L303.375 551.697C295.782 551.848 287.822 551.139 280.392 549.52C274.863 548.315 269.442 546.464 264 544.902L262.528 544.5C260.687 544.139 259.667 544.733 258.149 545.723C251.579 539.337 243.445 534.491 234.45 532.398C233.293 532.589 231.713 532.247 230.509 532.201L222.435 531.953L219.85 532.421C208.151 534.172 198.431 538.465 190.549 547.414L187.312 543.229C173.585 526.31 157.978 511.132 140.625 497.993C130.637 490.43 120.227 483.515 108.902 478.088C98.2481 472.982 87.0154 469.282 75.6327 466.188C66.5612 463.722 57.5872 461.479 48.2188 460.511L43.0332 424.052L41.0408 399.343L41.9341 356.125C41.9543 354.646 42.013 353.236 42.2503 351.774C43.0019 328.323 48.8045 304.979 53.5449 282.095Z"/>
	<path fill="#762EAA" transform="scale(0.666667 0.666667)" d="M229.126 384.038C232.08 383.68 234.819 383.999 237.492 385.369C240.374 386.847 242.648 389.132 243.562 392.289C244.355 395.024 244.021 397.281 242.623 399.758C241.004 402.626 238.458 403.649 235.493 404.567C232.994 404.943 230.784 405.035 228.371 404.081C224.587 402.584 221.97 400.123 220.489 396.293C219.656 394.138 219.537 392.308 220.592 390.188C222.344 386.664 225.551 385.078 229.126 384.038Z"/>
	<defs>
		<linearGradient id="gradient_9" gradientUnits="userSpaceOnUse" x1="125.63644" y1="490.99258" x2="154.11948" y2="420.67688">
			<stop offset="0" stop-color="#7E21A6"/>
			<stop offset="1" stop-color="#B438C1"/>
		</linearGradient>
	</defs>
	<path fill="url(#gradient_9)" transform="scale(0.666667 0.666667)" d="M41.0408 399.343L52.6611 400.317L82.7691 400.264L91.5 400.55C92.4209 400.595 94.2865 400.963 95.1395 400.739C110.008 402.404 123.794 406.541 136.697 414.267L152.695 424.35C160.304 428.657 168.529 431.731 174.177 438.725C182.546 449.088 185.113 461.256 189.004 473.602C192.777 484.795 196.902 496.348 204.188 505.8C208.481 511.37 214.127 516.35 219.576 520.746L228.375 527.301C230.009 528.412 231.901 529.427 233.384 530.725C233.985 531.25 233.74 531.766 234.45 532.398C233.293 532.589 231.713 532.247 230.509 532.201L222.435 531.953L219.85 532.421C208.151 534.172 198.431 538.465 190.549 547.414L187.312 543.229C173.585 526.31 157.978 511.132 140.625 497.993C130.637 490.43 120.227 483.515 108.902 478.088C98.2481 472.982 87.0154 469.282 75.6327 466.188C66.5612 463.722 57.5872 461.479 48.2188 460.511L43.0332 424.052L41.0408 399.343Z"/>
	<path fill="#FF1884" transform="scale(0.666667 0.666667)" d="M43.0332 424.052C50.4852 424.022 57.832 423.941 65.25 424.857C79.4271 426.607 94.9107 430.949 107.729 437.339C111.093 439.017 114.747 440.886 117.434 443.565C120.918 447.039 122.46 451.825 124.325 456.246C125.737 459.591 127.371 462.626 129.499 465.568C134.525 472.517 140.859 477.489 148.125 481.875C150.715 483.438 153.649 484.834 155.973 486.778C158.342 488.759 160.323 491.496 162.354 493.835C166.569 498.692 171.16 502.701 176.625 506.105C190.703 514.876 205.973 521.931 220.348 530.199C221.182 530.679 222.337 530.97 222.435 531.953L219.85 532.421C208.151 534.172 198.431 538.465 190.549 547.414L187.312 543.229C173.585 526.31 157.978 511.132 140.625 497.993C130.637 490.43 120.227 483.515 108.902 478.088C98.2481 472.982 87.0154 469.282 75.6327 466.188C66.5612 463.722 57.5872 461.479 48.2188 460.511L43.0332 424.052Z"/>
</svg>
