<svg xmlns="http://www.w3.org/2000/svg" width="32" height="32" viewBox="0 0 32 32" id="ruby">
  <defs>
    <linearGradient id="gradient" x1="0%" y1="0%" x2="100%" y2="0%">
      <stop offset="0%" stop-color="#FFFFFF"/>
      <stop offset="100%" style="stop-color:purple;stop-opacity:1" />
    </linearGradient>
  </defs>
  <path fill="url(#gradient)" d="M6.248 16.554c.132-.413.289-1.255.655-1.995 1.781-3.594 4.536-6.208 8.215-7.796.710-.306 1.555-.404 2.339-.408.980-.005 1.637.677 1.723 1.666.045.515.039 1.087-.138 1.561-1.743 4.662-5.032 7.784-9.656 9.538-.180.068-.381.086-.575.112-1.574.216-2.587-.676-2.563-2.678zm12.101-3.455l7.702-.540c-.192-.183-.300-.303-.425-.403-2.292-1.838-4.590-3.668-6.873-5.517-.226-.183-.366-.471-.668-.871.981 0 1.774-.009 2.567.002.957.014 1.937-.079 2.867.093 2.011.372 3.084 1.669 3.046 3.713-.035 1.916-.233 3.829-.375 5.742-.217 2.929-.445 5.858-.671 8.786-.039.505-.086 1.010-.137 1.610-1.063-.947-2.080-1.852-3.095-2.758-.131-.117-.240-.268-.385-.361-1.241-.790-1.759-1.968-2.041-3.376-.368-1.840-.907-3.646-1.371-5.467-.052-.204-.090-.412-.142-.655zM8.765 24.301c.547-.076 1.059-.108 1.547-.234.192-.049.415-.283.477-.479.460-1.455.882-2.923 1.317-4.385.038-.128.091-.252.161-.443l8.022 2.568a26.406 26.406 0 0 1-4.602 3.701l8.991.687.001.115c-.646.046-1.292.094-1.938.137-3.812.251-7.623.501-11.435.750-.606.040-1.213.106-1.818.095-2.566-.047-4.020-1.453-4.053-4.027-.019-1.446.130-2.894.222-4.340.007-.109.163-.209.250-.313.129.115.317.205.380.349.766 1.776 1.514 3.560 2.267 5.341.061.143.126.284.211.478z"></path>
</svg>
