<?xml version="1.0" encoding="utf-8"?>
<!-- Generator: Adobe Illustrator 24.3.0, SVG Export Plug-In . SVG Version: 6.00 Build 0)  -->
<svg version="1.1" id="Calque_1" xmlns="http://www.w3.org/2000/svg" xmlns:xlink="http://www.w3.org/1999/xlink" x="0px" y="0px"
	 viewBox="0 0 500 500" style="enable-background:new 0 0 500 500;" xml:space="preserve">
<style type="text/css">
	.st0{fill:#FFFFFF;}
	.st1{fill:#67FFCC;}
	.st2{fill:#D5CBFD;}
</style>
<g>
	<path class="st0" d="M181.76,205.8l2.61-18.26h0.3l7.42,14.98l7.35-14.98h0.29l2.63,18.26h-1.79l-1.8-13.06l-6.46,13.06h-0.47
		l-6.53-13.16l-1.79,13.16H181.76z"/>
	<path class="st0" d="M215.96,187.53l8.52,18.26h-1.97l-2.87-6.01h-7.87l-2.84,6.01h-2.04l8.63-18.26H215.96z M215.73,191.42
		l-3.13,6.61h6.24L215.73,191.42z"/>
	<path class="st0" d="M239.42,187.53h3.64c2.09,0,3.49,0.09,4.22,0.27c1.04,0.26,1.89,0.78,2.56,1.58c0.66,0.8,0.99,1.8,0.99,3.01
		c0,1.22-0.32,2.22-0.97,3.01c-0.65,0.79-1.54,1.32-2.67,1.6c-0.83,0.2-2.38,0.3-4.64,0.3h-1.3v8.49h-1.82V187.53z M241.25,189.32
		v6.19l3.09,0.04c1.25,0,2.16-0.11,2.74-0.34c0.58-0.23,1.03-0.59,1.37-1.1c0.33-0.51,0.5-1.08,0.5-1.7c0-0.61-0.17-1.17-0.5-1.68
		c-0.33-0.51-0.77-0.87-1.31-1.08c-0.54-0.21-1.43-0.32-2.66-0.32H241.25z"/>
	<path class="st0" d="M257.03,187.53h10.47v1.79h-8.64v5.72h8.57v1.79h-8.57v7.18h8.57v1.79h-10.39V187.53z"/>
	<path class="st0" d="M271.38,189.32v-1.79h10.01v1.79h-4.07v16.47h-1.86v-16.47H271.38z"/>
	<path class="st0" d="M286.3,187.53h1.82v18.26h-1.82V187.53z"/>
	<path class="st0" d="M293.04,189.32v-1.79h10.01v1.79h-4.07v16.47h-1.86v-16.47H293.04z"/>
	<path class="st0" d="M308.23,187.53h10.47v1.79h-8.64v5.72h8.57v1.79h-8.57v7.18h8.57v1.79h-10.39V187.53z"/>
</g>
<g>
	<path class="st1" d="M85.18,232.33H65.34v7.83h16.38v8.49H65.34v9.22h19.65v8.49H56.85v-42.52h28.33V232.33z"/>
	<path class="st1" d="M131.52,266.36l-23.9-24.81v24.81h-8.49v-42.52h2.67l23.48,23.78v-23.78h8.49v42.52H131.52z"/>
	<path class="st1" d="M178.89,223.84v8.49h-11.77v34.03h-8.49v-34.03H146.8v-8.49H178.89z"/>
	<path class="st1" d="M212,266.36l-7.95-17.05h-4.25v16.99h-8.49v-42.52h16.01c7.04,0,12.74,5.76,12.74,12.8
		c0,5.16-3.03,9.58-7.46,11.59l8.43,18.2H212z M199.81,232.27v8.55h7.52c2.37,0,4.25-1.88,4.25-4.25c0-2.37-1.88-4.31-4.25-4.31
		H199.81z"/>
	<path class="st1" d="M261.8,232.33h-19.84v7.83h16.38v8.49h-16.38v9.22h19.65v8.49h-28.15v-42.52h28.33V232.33z"/>
	<path class="st1" d="M289.4,223.84c7.04,0,12.74,5.76,12.74,12.8c0,7.04-5.7,12.74-12.74,12.74h-5.28v16.99h-8.49v-42.52H289.4z
		 M289.4,240.88c2.31,0,4.25-1.88,4.25-4.25c0-2.37-1.94-4.31-4.25-4.31h-5.28v8.55H289.4z"/>
	<path class="st1" d="M336.83,266.36l-7.95-17.05h-4.25v16.99h-8.49v-42.52h16.01c7.04,0,12.74,5.76,12.74,12.8
		c0,5.16-3.03,9.58-7.46,11.59l8.43,18.2H336.83z M324.64,232.27v8.55h7.52c2.37,0,4.25-1.88,4.25-4.25c0-2.37-1.88-4.31-4.25-4.31
		H324.64z"/>
	<path class="st1" d="M370.73,232.33v25.54h4.49v8.49h-17.53v-8.49h4.55v-25.54h-4.55v-8.49h17.53v8.49H370.73z"/>
	<path class="st1" d="M402.7,248.34c-1.39-0.36-4-1.03-6.43-2.67c-3.4-2.24-5.28-5.52-5.46-9.58c-0.18-3.4,0.91-6.37,3.09-8.68
		c3.15-3.28,7.7-4.18,9.89-4.18c6.19,0,9.65,2.24,12.74,4.25l1.39,0.91l-4.43,7.22l-1.52-0.97c-2.73-1.76-4.49-2.91-8.19-2.91
		c-0.55,0-2.67,0.42-3.76,1.58c-0.36,0.36-0.79,1.03-0.73,2.43c0.06,2.18,1.58,3.4,5.46,4.37c0.49,0.12,0.85,0.24,1.21,0.36
		c4.06,1.39,7.22,3.28,9.4,5.64c2.18,2.43,3.34,5.28,3.34,8.31c0,2.97-1.27,6.07-3.4,8.43c-2.49,2.79-5.94,4.37-9.77,4.37
		c-1.88,0-4.43-0.12-7.46-1.03c-3.82-1.21-7.22-3.34-10.13-6.43l6.19-5.82c4.49,4.79,9.52,4.79,11.4,4.79
		c3.52,0,4.67-3.21,4.67-4.31c0-2.3-2.61-4.43-7.04-5.94L403,248.4L402.7,248.34z"/>
	<path class="st1" d="M457.96,232.33h-19.84v7.83h16.38v8.49h-16.38v9.22h19.65v8.49h-28.15v-42.52h28.33V232.33z"/>
</g>
<path class="st2" d="M31.19,225.06C8.56,211.7-1.85,199.36,0.27,188.4c5.79-30.04,101.82-29.35,182.3-19.63l-0.69,5.74
	c-49.38-5.97-92.5-7.55-124.68-4.6c-30.72,2.83-49.4,9.96-51.26,19.58c-1.56,8.08,8.45,18.94,28.19,30.59L31.19,225.06z"/>
<path class="st2" d="M407.9,310.38c-47.31,0-106.69-6.46-168.59-18.39l1.09-5.67c145.99,28.15,249.02,21.31,253.65-2.73
	c1.13-5.86-3.84-13.25-14.36-21.37l3.53-4.57c12.55,9.68,18.1,18.78,16.51,27.04c-3.84,19.91-46.86,24.91-82.27,25.61
	C414.34,310.35,411.15,310.38,407.9,310.38z"/>
</svg>
